<?xml version="1.0" standalone="no"?><!DOCTYPE svg PUBLIC "-//W3C//DTD SVG 1.1//EN" "http://www.w3.org/Graphics/SVG/1.1/DTD/svg11.dtd"><svg t="1612257006901" class="icon" viewBox="0 0 1024 1024" version="1.1" xmlns="http://www.w3.org/2000/svg" p-id="49551" width="32" height="32" xmlns:xlink="http://www.w3.org/1999/xlink"><defs><style type="text/css"></style></defs><path d="M216.192 260.352v514.304h591.616V260.352H216.192z m-25.173333-46.848h639.616c10.88 0 19.712 8.789333 19.712 19.669333v565.802667a19.669333 19.669333 0 0 1-19.712 19.712H191.061333a19.669333 19.669333 0 0 1-19.712-19.712V233.216c0-10.922667 8.832-19.712 19.669334-19.712z" fill="#7b9ee7" p-id="49552"></path><path d="M191.018667 427.989333a19.669333 19.669333 0 1 1 0-39.381333h639.616a19.669333 19.669333 0 1 1 0 39.381333H191.061333z m0 215.552a19.669333 19.669333 0 0 1 0-39.381333h639.616a19.669333 19.669333 0 0 1 0 39.381333H191.061333z" fill="#7b9ee7" p-id="49553"></path><path d="M380.458667 417.621333a19.669333 19.669333 0 1 1 39.381333 0v381.354667a19.669333 19.669333 0 0 1-39.381333 0V417.621333z m221.44 0a19.669333 19.669333 0 0 1 39.338666 0v381.354667a19.669333 19.669333 0 0 1-39.381333 0V417.621333z" fill="#7b9ee7" p-id="49554"></path></svg>