<?xml version="1.0" standalone="no"?><!DOCTYPE svg PUBLIC "-//W3C//DTD SVG 1.1//EN" "http://www.w3.org/Graphics/SVG/1.1/DTD/svg11.dtd"><svg t="1612256983025" class="icon" viewBox="0 0 1024 1024" version="1.1" xmlns="http://www.w3.org/2000/svg" p-id="47929" width="32" height="32" xmlns:xlink="http://www.w3.org/1999/xlink"><defs><style type="text/css"></style></defs><path d="M307.9113 212.535581 245.282914 149.367913 220.010321 174.880983 282.63973 238.047628Z" p-id="47930" fill="#7b9ee7"></path><path d="M494.098793 65.290005l35.771715 0 0 89.334631-35.771715 0 0-89.334631Z" p-id="47931" fill="#7b9ee7"></path><path d="M389.721561 415.793868l-56.885592 0 0 164.724669 56.681954 0c25.868157 0 46.997384-7.714705 63.371306-23.134907 16.373922-15.414061 24.575722-35.84437 24.575722-61.299111C477.463927 442.557418 448.20658 415.793868 389.721561 415.793868zM426.306804 536.916483c-9.509585 9.924024-22.582321 14.882965-39.232536 14.882965L367.923092 551.799448l0-107.293655 19.035542 0c15.879666 0 28.791743 4.587482 38.708604 13.770632s14.891152 21.957081 14.891152 38.338167C440.558389 513.555425 435.817412 526.991436 426.306804 536.916483z" p-id="47932" fill="#7b9ee7"></path><path d="M803.988656 174.880983 778.701736 149.367913 716.028325 212.535581 741.34492 238.047628Z" p-id="47933" fill="#7b9ee7"></path><path d="M635.063315 479.070007c-1.499144 3.469008-2.662643 7.686053-3.505847 12.651135l-0.435928 0c-2.065032-7.372921-3.373841-11.69946-3.925403-12.971429l-27.656897-62.955844-40.09109 0 52.318576 106.551758 0 58.172911 35.088146 0 0-58.805314 53.81772-105.919355-37.22481 0L635.063315 479.070007z" p-id="47934" fill="#7b9ee7"></path><path d="M491.176231 443.12433 505.107521 443.12433 505.107521 553.188074 491.176231 553.188074 491.176231 580.518536 554.343899 580.518536 554.343899 553.188074 540.20897 553.188074 540.20897 443.12433 554.343899 443.12433 554.343899 415.793868 491.176231 415.793868Z" p-id="47935" fill="#7b9ee7"></path><path d="M512.000512 227.687676c-141.444453 0-256.494769 116.061342-256.494769 258.70511 0 99.41829 55.881728 185.895851 137.647987 229.185796l0 123.237789c0 66.090231 53.308113 119.893624 118.846782 119.893624 65.50797 0 118.859062-53.803393 118.859062-119.893624L630.859573 715.578582c81.752955-43.289945 137.64901-129.780809 137.64901-229.185796C768.508583 343.749018 653.442918 227.687676 512.000512 227.687676zM595.073532 838.815347c0 46.198182-37.298488 83.815941-83.074044 83.815941-45.791929 0-83.075067-37.618782-83.075067-83.815941l0-26.813692 166.149111 0L595.073532 838.815347zM595.073532 787.513938 428.925445 787.513938l0-56.347333c2.152013 0.741897 4.304026 1.439792 6.485715 2.122337 0.333598 0.102331 0.682545 0.218988 1.017166 0.334621 1.541099 0.465604 3.083222 0.930185 4.609994 1.367137 0.479931 0.145309 0.945535 0.276293 1.410116 0.406253 1.526773 0.436952 3.053546 0.858554 4.594645 1.251503 0.407276 0.115634 0.814552 0.233314 1.221828 0.348947 1.919722 0.494257 3.853771 0.959861 5.786797 1.425466 0.246617 0.058328 0.494257 0.102331 0.727571 0.145309 1.656733 0.39295 3.314489 0.756223 4.972245 1.105171 0.683569 0.146333 1.367137 0.261966 2.035356 0.407276 1.251503 0.261966 2.51631 0.494257 3.781116 0.726547 0.7552 0.146333 1.497097 0.277316 2.238994 0.407276 1.25048 0.233314 2.499937 0.435928 3.736091 0.62524 0.727571 0.115634 1.439792 0.246617 2.181689 0.348947 1.469468 0.217964 2.922563 0.421602 4.406356 0.624217 0.494257 0.059352 0.988514 0.146333 1.482771 0.203638 1.948375 0.24764 3.897773 0.465604 5.846148 0.669242 0.581238 0.058328 1.163499 0.115634 1.744737 0.173962 1.425466 0.130983 2.835581 0.261966 4.260024 0.3776 0.727571 0.059352 1.454118 0.116657 2.196015 0.174985 1.307785 0.086981 2.617617 0.174985 3.924379 0.233314 0.727571 0.058328 1.484817 0.086981 2.226714 0.115634 1.381463 0.072655 2.77623 0.130983 4.143367 0.174985 0.655939 0.028653 1.308809 0.042979 1.948375 0.058328 2.036379 0.044002 4.057409 0.072655 6.093788 0.072655 2.034333 0 4.055362-0.028653 6.091742-0.072655 0.669242-0.01535 1.308809-0.028653 1.977028-0.058328 1.367137-0.044002 2.734274-0.102331 4.101411-0.174985 0.757247-0.028653 1.526773-0.086981 2.298346-0.115634 1.264806-0.058328 2.530636-0.146333 3.795443-0.233314 0.785899-0.058328 1.555425-0.115634 2.325975-0.174985 1.337461-0.115634 2.673899-0.232291 4.013407-0.36225 0.653893-0.072655 1.337461-0.130983 1.992377-0.189312 1.904373-0.203638 3.823072-0.421602 5.728468-0.669242 0.639566-0.086981 1.295506-0.173962 1.935072-0.261966 1.308809-0.173962 2.616594-0.348947 3.911076-0.552585 0.829901-0.115634 1.656733-0.261966 2.472308-0.39295 1.1328-0.189312 2.26867-0.36225 3.40147-0.566912 0.843204-0.146333 1.673106-0.290619 2.51631-0.465604 1.149173-0.202615 2.296299-0.435928 3.445472-0.654916 0.771573-0.159636 1.556449-0.304945 2.325975-0.479931 1.469468-0.290619 2.937912-0.62524 4.40738-0.959861 0.421602-0.088004 0.843204-0.174985 1.279133-0.290619 1.89107-0.436952 3.781116-0.901533 5.64251-1.39579 0.509606-0.130983 1.00284-0.261966 1.51347-0.39295 1.438769-0.39295 2.864234-0.77055 4.303003-1.177825 0.523933-0.145309 1.046842-0.304945 1.570775-0.464581 1.497097-0.421602 2.965541-0.87288 4.449335-1.323135 0.379647-0.130983 0.771573-0.24764 1.149173-0.363274 2.153036-0.668219 4.288676-1.382487 6.427386-2.12336L595.071486 787.513938zM546.782689 706.228633l-0.016373 0c-1.147126 0.189312-2.310625 0.36225-3.474125 0.523933-0.49528 0.086981-0.975211 0.145309-1.455141 0.202615-1.00284 0.146333-2.02103 0.277316-3.02387 0.407276-0.757247 0.086981-1.499144 0.173962-2.240017 0.246617-0.857531 0.102331-1.700735 0.203638-2.558265 0.290619-1.541099 0.159636-3.084245 0.290619-4.625344 0.421602-0.60989 0.028653-1.220804 0.072655-1.832741 0.115634-1.119497 0.088004-2.238994 0.160659-3.357468 0.203638-0.639566 0.058328-1.281179 0.086981-1.920746 0.116657-1.147126 0.042979-2.296299 0.086981-3.459798 0.115634-0.567935 0.028653-1.119497 0.058328-1.686409 0.058328-1.700735 0.044002-3.417843 0.058328-5.132904 0.058328-1.730411 0-3.447519-0.014326-5.16258-0.058328-0.523933 0-1.077541-0.028653-1.629103-0.058328-1.178849-0.028653-2.369977-0.072655-3.547803-0.115634-0.611937-0.029676-1.222851-0.059352-1.832741-0.116657-1.176802-0.042979-2.356674-0.115634-3.547803-0.203638-0.538259-0.042979-1.076518-0.086981-1.613754-0.115634-1.586125-0.130983-3.184529-0.261966-4.755304-0.436952-0.726547-0.071631-1.454118-0.145309-2.180666-0.232291-0.887206-0.102331-1.788739-0.203638-2.675946-0.320295-0.901533-0.102331-1.788739-0.233314-2.674922-0.349971-0.669242-0.086981-1.323135-0.173962-1.978051-0.276293-1.032516-0.159636-2.050706-0.290619-3.083222-0.465604-105.294115-16.824177-186.042183-108.987227-186.042183-219.857337 0-122.743532 99.012038-222.605937 220.724077-222.605937 121.723296 0 220.72203 99.862405 220.72203 222.605937C732.722542 597.197404 652.031778 689.35943 546.782689 706.228633z" p-id="47936" fill="#7b9ee7"></path></svg>