<?xml version="1.0" standalone="no"?><!DOCTYPE svg PUBLIC "-//W3C//DTD SVG 1.1//EN" "http://www.w3.org/Graphics/SVG/1.1/DTD/svg11.dtd"><svg t="1612257144868" class="icon" viewBox="0 0 1024 1024" version="1.1" xmlns="http://www.w3.org/2000/svg" p-id="53028" width="32" height="32" xmlns:xlink="http://www.w3.org/1999/xlink"><defs><style type="text/css"></style></defs><path d="M405.333333 938.666667a21.333333 21.333333 0 0 1-21.333333-21.333334V540.446667L106.666667 170.666667a53.333333 53.333333 0 0 1 42.666666-85.333334h725.333334a53.333333 53.333333 0 0 1 42.666666 85.333334L640 540.446667V832a21.333333 21.333333 0 0 1-13.413333 19.806667l-213.333334 85.333333A21.206667 21.206667 0 0 1 405.333333 938.666667zM149.333333 128a10.666667 10.666667 0 0 0-8.533333 17.066667l281.6 375.466666A21.333333 21.333333 0 0 1 426.666667 533.333333v352.486667l170.666666-68.266667V533.333333a21.333333 21.333333 0 0 1 4.266667-12.8l281.6-375.466666A10.666667 10.666667 0 0 0 874.666667 128z m469.333334 704z" fill="#7b9ee7" p-id="53029"></path></svg>