<?xml version="1.0" standalone="no"?><!DOCTYPE svg PUBLIC "-//W3C//DTD SVG 1.1//EN" "http://www.w3.org/Graphics/SVG/1.1/DTD/svg11.dtd"><svg t="1612257497478" class="icon" viewBox="0 0 1024 1024" version="1.1" xmlns="http://www.w3.org/2000/svg" p-id="62734" width="32" height="32" xmlns:xlink="http://www.w3.org/1999/xlink"><defs><style type="text/css"></style></defs><path d="M961.9 847.7c-7.1-59.9-65.4-101-124.3-87.4-4 0.9-5.4 0-6.9-3.6-9.5-22.5-19.7-44.7-30.3-66.8-41.2-85.8-86.1-169.6-129.8-254.1-32.1-62-64.4-124-92.6-187.9-1.3-3-1.3-4.7 1.4-7 23-20.5 34.9-46.2 35-77.1 0.1-61.6-54.5-110.1-115.2-101.4-40.5 5.8-69.2 28.3-83.1 66.8-13.8 38.5-5.9 73.7 21.2 104.4 1.9 2.2 2.5 3.6 1.1 6.3-16.6 33.1-32.1 66.8-47.3 100.7-41.6 93.2-80.7 187.5-122 280.9-20.7 46.8-41.9 93.5-65 139.2-1.6 3.2-2.9 4.1-6.6 2.7-15.5-5.5-31.4-6.9-47.7-4.7-57.8 7.8-97.7 63.7-86.3 121 8.6 43.3 43.1 75.7 87.3 82 42.5 6.1 85.2-16.7 104.8-56 1.9-3.8 4.1-4.7 8-4.7 165.7 0.1 331.3 0.1 497 0 4.5 0 6.6 1.4 8.6 5.4 19.5 38.8 61.7 61.1 104.2 55.5 51.1-6.8 88.6-49.1 89.5-102.2-0.5-3.3-0.5-7.7-1-12z m-798.1 73.9c-33.7-0.1-61.3-27.7-61.4-61.5-0.1-33.7 27.5-61.3 61.4-61.3 34-0.1 61.4 27.1 61.5 61.1 0 34.1-27.6 61.8-61.5 61.7z m294.8-788.1c12.6-22.3 38-34.5 63.4-30.4 24.7 4 45.1 23.6 50.1 48.2 0.8 4.1 1.1 8.2 1.2 11.8 0 42.8-41.2 72.4-81.1 58.9-1.3-0.4-2.3-0.9-3.3-1.6-8.2-3.4-15.5-8.6-21.4-15.1-1-0.5-1.8-1.2-2.7-2.2-16.2-19.2-18.7-47.4-6.2-69.6z m334.2 649.7c-21.4 19.1-33.3 42.9-34.7 71.6-0.2 4.6-1.6 5.3-5.7 5.3-80.2-0.1-160.3-0.1-240.5-0.1-80 0-160 0-240 0.1-4.2 0-5.8-0.7-6-5.5-1.1-24.7-10.5-46.2-27.3-64.3-1.8-2-2.4-3.3-1-5.9 37.4-72.8 69.7-148 102.3-223.1 38.6-88.9 75.8-178.5 117-266.2 5.1-10.8 10.5-21.5 15.6-32.4 1.2-2.6 2.4-3.6 5.5-2.5 19 6.8 38.4 7.7 58 3 2.5-0.6 3.9-0.4 5 2.2 48.5 108.4 105.9 212.3 160 317.8 32.6 63.5 65.4 126.8 93.4 192.6 1.3 3.1 1.2 4.9-1.6 7.4zM860 921.6c-33.9-0.2-61.1-27.7-61.1-61.6 0-34 27.3-61.2 61.3-61.2 33.9 0 61.4 27.4 61.5 61.2 0.1 33.9-27.9 61.8-61.7 61.6z" p-id="62735" fill="#7b9ee7"></path></svg>