<?xml version="1.0" ?><!DOCTYPE svg  PUBLIC '-//W3C//DTD SVG 1.1//EN'  'http://www.w3.org/Graphics/SVG/1.1/DTD/svg11.dtd'><svg enable-background="new 0 0 126 126" id="Layer_1" version="1.1" viewBox="0 0 126 126" xml:space="preserve" xmlns="http://www.w3.org/2000/svg" xmlns:xlink="http://www.w3.org/1999/xlink"><g><g><path d="M106.7532,53.1628c-1.413,0.2057-14.8281-4.1895-16.25-10.1994    c-1.422-6.0182-12.1541-12.2824-16.724-10.7352c-4.5699,1.5471-10.5618-0.1074-10.5618-0.1074l-3.774-1.8244l-0.8586-0.4113    h-0.0089L1,63.1279l64.0335,37.22l55.9482-32.3041c1.565-0.903,2.8707-2.2445,3.5504-3.917    C128.3061,54.8977,108.0499,52.9838,106.7532,53.1628z" fill="#F3F6FD"/><polygon fill="#FDFEFF" points="114.3776,71.857 77.9325,50.958 69.2113,55.9933 105.6567,76.8923 105.1331,77.1945     68.6877,56.2954 41.4864,72 77.933,92.8999 77.4095,93.2021 40.9629,72.3022 32.2464,77.3349 68.6933,98.2348 68.1698,98.537     3.8887,61.4603 4.4122,61.1577 31.8341,77.0951 40.5505,72.0629 13.1285,56.1254 13.652,55.8228 41.0741,71.7607 49.8707,66.6817     22.4485,50.7443 22.8211,50.529 50.2434,66.4665 59.1155,61.3443 31.693,45.4064 32.061,45.1942 59.4834,61.132 68.2753,56.0557     40.8527,40.1178 41.3762,39.8156 68.7989,55.7535 77.5201,50.7182 50.0972,34.7803 50.6208,34.4782 114.9011,71.5549   "/></g><g><path d="M90.6236,66.0325l-2.5416,1.4141c-0.4545,0.2527-1.1783,0.2527-1.6159-0.0168L61.8573,53.1896    c-0.4377-0.2692-0.4545-0.6731,0-0.9259l2.5417-1.4137c0.4544-0.2527,1.1783-0.2527,1.6327,0.0168l24.592,14.2401    C91.0781,65.3593,91.0781,65.7801,90.6236,66.0325z" fill="#E1E9F4"/><g><g><g><g><g><g enable-background="new    "><g><polygon fill="#83A1CC" points="77.5347,63.8375 84.233,59.9449 84.2255,60.8097 77.5272,64.7023          "/></g><g><polygon fill="#DEE7F8" points="66.6041,57.5268 73.3024,53.6342 84.233,59.9449 77.5347,63.8375          "/></g><g><polygon fill="#9EB5DF" points="77.5347,63.8375 77.5272,64.7023 66.5966,58.3915 66.6041,57.5268          "/></g></g></g><g><g><g enable-background="new    "><g><path d="M78.8598,60.6291l-0.8114,0.4725l-1.0975-7.7222c0.346,0.1977,0.4752,0.5259,0.8114,0.7236            L78.8598,60.6291z" fill="#83A1CC"/></g><g><path d="M78.0484,61.1017l-6.071-3.51l2.027-5.9425c2.0468,1.0479,0.9591,0.5931,2.9465,1.7304            L78.0484,61.1017z" fill="#9EB5DF"/></g></g></g></g><g><g><g enable-background="new    "><g><path d="M90.7934,42.3339L90.744,63.4067c-0.002,0.3106-0.1108,0.5282-0.2868,0.6311l-0.6754,0.3956            c-0.18,0.1108-0.4312,0.0989-0.7081-0.0613L63.3475,49.5193c-0.54-0.3145-0.9791-1.0741-0.9771-1.6971l0.0514-21.0729            c0-0.3283,0.1226-0.5538,0.3184-0.6468c-0.0119,0.004-0.0237,0.0099-0.0336,0.0158l0.6853-0.3996            c0.18-0.1048,0.4253-0.0889,0.6982,0.0673l25.7262,14.8527C90.3583,40.9513,90.7954,41.7108,90.7934,42.3339z" fill="#83A1CC"/></g><path d="M90.1106,42.7352L90.0593,63.804c0,0.6244-0.4448,0.8809-0.9837,0.5647l-25.724-14.8474           c-0.5474-0.3166-0.9837-1.078-0.9837-1.7025L62.4192,26.75c0-0.6244,0.4448-0.8725,0.9837-0.5647l25.724,14.8562           C89.6744,41.3493,90.1106,42.1108,90.1106,42.7352z" fill="#B6CBEA"/><polygon fill="#FFFFFF" points="63.2532,27.0632 63.2127,46.201 89.234,61.2255 89.2745,42.0874          "/><g><polygon fill="#83A1CC" points="63.2532,27.0633 63.2464,30.2562 89.2677,45.2807 89.2745,42.0874           "/></g><path d="M75.0194,53.8017c-0.3246-0.1874-0.5885-0.0369-0.5895,0.3361s0.2611,0.827,0.5857,1.0144           c0.3246,0.1873,0.5885,0.0371,0.5895-0.3359S75.344,53.9893,75.0194,53.8017z" fill="#83A1CC"/></g></g></g></g></g></g><g><g><polygon fill="#3887E5" points="70.7801,41.0669 70.7705,44.4264 66.7198,42.0877 66.7293,38.7282      "/></g><g><polygon fill="#6262AA" points="68.2285,43.966 68.2275,44.3088 66.716,43.4361 66.7169,43.0933      "/></g><g><polygon fill="#83A1CC" points="70.7656,46.1684 70.7586,48.624 66.7079,46.2853 66.7148,43.8297      "/></g><g><polygon fill="#6262AA" points="75.7223,48.2925 75.7213,48.6353 74.2097,47.7626 74.2107,47.4198      "/></g><g><polygon fill="#6262AA" points="83.2182,52.6203 83.2172,52.9631 81.7057,52.0904 81.7066,51.7476      "/></g><g enable-background="new    "><g><polygon fill="#83A1CC" points="85.7553,54.8227 85.7483,57.2783 81.6976,54.9396 81.7046,52.484       "/></g><g><polygon fill="#3887E5" points="85.7698,49.7212 85.7602,53.0807 81.7095,50.742 81.719,47.3825       "/></g></g><g enable-background="new    "><g><polygon fill="#83A1CC" points="78.2593,50.4949 78.2524,52.9505 74.2017,50.6118 74.2086,48.1562       "/></g><g><polygon fill="#3887E5" points="78.2738,45.3934 78.2643,48.7529 74.2135,46.4142 74.2231,43.0547       "/></g><g><polygon fill="#6262AA" points="87.1094,45.4014 87.0994,48.9514 67.7098,37.7568 69.5822,37.0599 67.7198,34.2068       "/></g></g><g><polygon fill="#6262AA" points="66.8513,33.7053 68.7137,36.5585 66.8413,37.2553 65.4115,36.4298 65.4215,32.8798      "/></g></g><g><g><path d="M84.3854,40.4452c0.2813,0.1624,0.5103,0.5588,0.5093,0.8823       c-0.0009,0.3232-0.2313,0.4545-0.5127,0.292c-0.2814-0.1625-0.5103-0.5589-0.5094-0.8821       C83.8736,40.414,84.104,40.2827,84.3854,40.4452z" fill="#DEE7F8"/></g><g><path d="M86.2113,41.4994c0.2813,0.1624,0.5103,0.5588,0.5093,0.8823       c-0.0009,0.3232-0.2313,0.4545-0.5127,0.292c-0.2814-0.1625-0.5103-0.5589-0.5094-0.8821       C85.6995,41.4682,85.9299,41.3369,86.2113,41.4994z" fill="#DEE7F8"/></g><g><path d="M88.0372,42.5536c0.2813,0.1624,0.5103,0.5588,0.5093,0.8823       c-0.0009,0.3232-0.2313,0.4545-0.5127,0.292c-0.2814-0.1625-0.5103-0.5589-0.5094-0.8821       C87.5254,42.5224,87.7559,42.3911,88.0372,42.5536z" fill="#DEE7F8"/></g></g></g><path d="M104.5742,75.6699l-1.2378,0.6887c-0.2213,0.1231-0.5738,0.1231-0.787-0.0082l-11.9846-6.935    c-0.2131-0.1311-0.2213-0.3278,0-0.4509l1.2378-0.6885c0.2213-0.1231,0.5738-0.1231,0.7951,0.0082l11.9764,6.935    C104.7955,75.3421,104.7955,75.547,104.5742,75.6699z" fill="#E1E9F4"/><g><g><g><g><g><g><g enable-background="new    "><g><path d="M103.9994,65.7617l-0.0161,7.5611c-0.0032,0.1097-0.042,0.1904-0.1033,0.2259l-0.2969,0.1743            c-0.0645,0.0387-0.1549,0.0355-0.2549-0.0226l-10.708-6.181c-0.1936-0.113-0.3517-0.3872-0.3517-0.6099l0.0194-7.5612            c0-0.1161,0.042-0.1937,0.1065-0.2291l0.2969-0.1743c0.0645-0.0387,0.1517-0.0323,0.2517,0.0226l10.7048,6.1842            C103.8445,65.2647,103.9994,65.5358,103.9994,65.7617z" fill="#83A1CC"/></g><path d="M103.6997,65.9369l-0.0184,7.5602c0,0.2241-0.1596,0.3161-0.353,0.2026l-10.7066-6.18           c-0.1964-0.1136-0.353-0.3868-0.353-0.6109l0.0184-7.5602c0-0.2241,0.1596-0.3131,0.353-0.2026l10.7066,6.1832           C103.5432,65.4396,103.6997,65.7128,103.6997,65.9369z" fill="#9EB5DF"/><g><path d="M103.017,69.1402c0.1959,0.1131,0.3553,0.3891,0.3547,0.6143            c-0.0006,0.2251-0.1611,0.3165-0.357,0.2033c-0.1959-0.1131-0.3553-0.3892-0.3547-0.6142            C102.6606,69.1184,102.821,69.027,103.017,69.1402z" fill="#83A1CC"/></g><g><g><path d="M92.6473,64.6618c0.0608,0.0351,0.1103,0.1208,0.1101,0.1907             c-0.0002,0.0699-0.05,0.0982-0.1108,0.0631c-0.0608-0.0351-0.1103-0.1208-0.1101-0.1906             C92.5367,64.6551,92.5865,64.6267,92.6473,64.6618z" fill="#83A1CC"/></g><g><path d="M92.6473,64.2285c0.0608,0.0351,0.1103,0.1208,0.1101,0.1907             c-0.0002,0.0699-0.05,0.0982-0.1108,0.0631c-0.0608-0.0351-0.1103-0.1208-0.1101-0.1907             C92.5367,64.2218,92.5865,64.1934,92.6473,64.2285z" fill="#83A1CC"/></g><g><path d="M92.6473,63.7952c0.0608,0.0351,0.1103,0.1208,0.1101,0.1907             c-0.0002,0.0699-0.05,0.0982-0.1108,0.0631c-0.0608-0.0351-0.1103-0.1208-0.1101-0.1907             C92.5367,63.7884,92.5865,63.7601,92.6473,63.7952z" fill="#83A1CC"/></g><g><path d="M92.6473,63.3618c0.0608,0.0351,0.1103,0.1208,0.1101,0.1907             c-0.0002,0.0699-0.05,0.0982-0.1108,0.0631c-0.0608-0.0351-0.1103-0.1208-0.1101-0.1907             C92.5367,63.3551,92.5865,63.3267,92.6473,63.3618z" fill="#83A1CC"/></g><g><path d="M92.6473,62.9285c0.0608,0.0351,0.1103,0.1208,0.1101,0.1907             c-0.0002,0.0699-0.05,0.0982-0.1108,0.0631c-0.0608-0.0351-0.1103-0.1208-0.1101-0.1906             C92.5367,62.9218,92.5865,62.8934,92.6473,62.9285z" fill="#83A1CC"/></g><g><path d="M92.6473,62.4952c0.0608,0.0351,0.1103,0.1208,0.1101,0.1907             c-0.0002,0.0699-0.05,0.0982-0.1108,0.0631c-0.0608-0.0351-0.1103-0.1208-0.1101-0.1907             C92.5367,62.4884,92.5865,62.4601,92.6473,62.4952z" fill="#83A1CC"/></g></g><polygon fill="#FFFFFF" points="93.0967,59.7557 93.0822,67.1798 102.4195,72.5711 102.434,65.1469          "/><g><polygon fill="#83A1CC" points="93.0967,59.7557 93.0943,60.9014 102.4316,66.2927 102.434,65.1468           "/></g></g></g></g></g></g></g><g><g><polygon fill="#3887E5" points="95.7976,64.7807 95.7942,65.9862 94.3407,65.147 94.3441,63.9415      "/></g><g><polygon fill="#6262AA" points="94.882,65.821 94.8817,65.944 94.3393,65.6308 94.3396,65.5078      "/></g><g><polygon fill="#83A1CC" points="95.7924,66.6113 95.7899,67.4924 94.3364,66.6532 94.3389,65.7721      "/></g><g><polygon fill="#6262AA" points="97.571,67.3735 97.5707,67.4965 97.0283,67.1833 97.0286,67.0603      "/></g><g><polygon fill="#6262AA" points="100.2608,68.9264 100.2605,69.0494 99.7181,68.7363 99.7184,68.6133      "/></g><g enable-background="new    "><g><polygon fill="#83A1CC" points="101.1712,69.7167 101.1687,70.5979 99.7152,69.7587 99.7177,68.8775       "/></g><g><polygon fill="#3887E5" points="101.1764,67.8861 101.173,69.0916 99.7195,68.2524 99.7229,67.0469       "/></g></g><g enable-background="new    "><g><polygon fill="#83A1CC" points="98.4814,68.1638 98.4789,69.0449 97.0254,68.2057 97.0279,67.3246       "/></g><g><polygon fill="#3887E5" points="98.4866,66.3332 98.4832,67.5387 97.0297,66.6995 97.0331,65.494       "/></g><g><polygon fill="#6262AA" points="101.6571,66.336 101.6535,67.6099 94.6959,63.5929 95.3678,63.3428 94.6995,62.319       "/></g></g><g><polygon fill="#6262AA" points="94.3879,62.1391 95.0561,63.1629 94.3842,63.413 93.8712,63.1167 93.8748,61.8429      "/></g></g><g><g><path d="M100.6796,64.5576c0.101,0.0583,0.1831,0.2005,0.1828,0.3166c-0.0003,0.116-0.083,0.1631-0.184,0.1048       c-0.101-0.0583-0.1831-0.2005-0.1828-0.3165C100.496,64.5464,100.5787,64.4993,100.6796,64.5576z" fill="#DEE7F8"/></g><g><path d="M101.3349,64.9359c0.101,0.0583,0.1831,0.2005,0.1828,0.3166c-0.0003,0.116-0.083,0.1631-0.184,0.1048       c-0.101-0.0583-0.1831-0.2005-0.1828-0.3165C101.1512,64.9247,101.2339,64.8776,101.3349,64.9359z" fill="#DEE7F8"/></g><g><path d="M101.9901,65.3141c0.101,0.0583,0.1831,0.2005,0.1828,0.3166c-0.0003,0.116-0.083,0.1631-0.184,0.1048       c-0.101-0.0583-0.1831-0.2005-0.1828-0.3165C101.8064,65.3029,101.8891,65.2559,101.9901,65.3141z" fill="#DEE7F8"/></g></g></g><g><g><g><path d="M57.8347,39.614L40.871,29.819c-0.1791-0.1032-0.3419-0.1113-0.4558-0.0435l-0.4039,0.2312       c0.1167-0.0652,0.2768-0.057,0.4558,0.0461l0.3337,0.19l-0.3364,0.5427l-0.0326,11.5342l16.9663,9.7951       c0,0,0.5671,0.7136,0.4531,0.7786l0.4011-0.2337c0.1139-0.0652,0.1872-0.2091,0.1872-0.4098l0.0326-11.5316       C58.4723,40.3141,58.1874,39.8175,57.8347,39.614z" fill="#6262AA"/><g><g enable-background="new    "><g><path d="M57.4311,39.8466c0.3534,0.204,0.64,0.7005,0.6389,1.1066l-0.0327,11.5296          c-0.0012,0.4081-0.2897,0.5705-0.643,0.3665L40.431,43.0555c-0.3551-0.205-0.64-0.6985-0.6389-1.1066l0.0327-11.5296          c0.0012-0.4061,0.2879-0.5715,0.6431-0.3665L57.4311,39.8466z" fill="#2A2A5E"/></g></g></g><g><polygon fill="#FFFFFF" points="57.4307,40.5821 57.398,52.1157 40.4314,42.32 40.4641,30.7864       "/></g><g><polygon fill="#83A1CC" points="40.4641,30.7864 40.4582,32.4181 57.4249,42.2137 57.4307,40.582       "/></g><g><g><path d="M54.7475,39.5952c0.1416,0.0817,0.2568,0.2812,0.2563,0.444         c-0.0005,0.1627-0.1164,0.2287-0.258,0.147c-0.1416-0.0818-0.2568-0.2812-0.2563-0.4439         C54.49,39.5794,54.6059,39.5134,54.7475,39.5952z" fill="#DEE7F8"/></g><g><path d="M55.6664,40.1256c0.1416,0.0817,0.2568,0.2812,0.2563,0.444         c-0.0005,0.1627-0.1164,0.2287-0.258,0.1469c-0.1416-0.0817-0.2568-0.2812-0.2563-0.4439         C55.4088,40.1099,55.5248,40.0439,55.6664,40.1256z" fill="#DEE7F8"/></g><g><path d="M56.5852,40.6561c0.1416,0.0817,0.2568,0.2812,0.2563,0.444         c-0.0005,0.1627-0.1164,0.2287-0.258,0.1469c-0.1416-0.0817-0.2568-0.2812-0.2563-0.4439         C56.3277,40.6404,56.4436,40.5744,56.5852,40.6561z" fill="#DEE7F8"/></g></g></g><g><g><g enable-background="new    "><g><path d="M57.6601,53.221l-0.0027,0.8936c0,0.133-0.0868,0.2633-0.2632,0.3663l-9.9687,5.7929          c-0.3527,0.2035-0.9252,0.2035-1.278,0L29.184,50.4816c-0.1791-0.1032-0.2659-0.2389-0.2659-0.3745l0.0027-0.8908          c0-0.133,0.0895-0.2687,0.2632-0.3691l9.9714-5.7929c0.35-0.2062,0.9225-0.2035,1.2752,0l16.9636,9.7951          C57.5706,52.9523,57.6601,53.0853,57.6601,53.221z" fill="#83A1CC"/></g></g></g><g><g><g enable-background="new    "><g><path d="M57.6601,53.221l-0.0027,0.8925c0,0.133-0.0868,0.2631-0.2632,0.3663l-9.9687,5.7929           c-0.3527,0.2035-0.9252,0.2035-1.278,0L29.184,50.4804c-0.1791-0.1031-0.2659-0.2387-0.2659-0.3744l0.0027-0.8897           c0,0.1329,0.0895,0.2685,0.2686,0.3716l16.9609,9.7924c0.3554,0.2061,0.9279,0.2061,1.278,0l9.9714-5.7929           C57.5733,53.4869,57.6601,53.354,57.6601,53.221z" fill="#9EB5DF"/></g><g><path d="M57.6601,53.9511l-0.0027,0.8925c0,0.133-0.0868,0.2631-0.2632,0.3663l-9.9687,5.7929           c-0.3527,0.2035-0.9252,0.2035-1.278,0L29.184,51.2105c-0.1791-0.1031-0.2659-0.2387-0.2659-0.3744l0.0027-0.8898           c0,0.1329,0.0895,0.2685,0.2686,0.3716l16.9609,9.7924c0.3554,0.2061,0.9279,0.2061,1.278,0l9.9714-5.7929           C57.5733,54.217,57.6601,54.0841,57.6601,53.9511z" fill="#E1E9F4"/></g><g><path d="M57.3938,52.848c0.3534,0.204,0.357,0.5351,0.0059,0.7391l-9.9704,5.7941           c-0.3511,0.204-0.9244,0.204-1.2778,0l-16.9632-9.7937c-0.3534-0.204-0.3553-0.5361-0.0042-0.7402l9.9704-5.7941           c0.3511-0.204,0.9226-0.203,1.276,0.001L57.3938,52.848z" fill="#DEE7F8"/></g></g></g><path d="M44.7991,53.6361l-5.3901-3.112c-0.1127-0.0649-0.2948-0.066-0.4067-0.0011l-2.6252,1.5256        c-0.1119,0.0651-0.1095,0.1706,0.0031,0.2357l5.3901,3.112c0.1126,0.065,0.293,0.065,0.405,0l2.6252-1.5256        C44.9123,53.8056,44.9117,53.7011,44.7991,53.6361z" fill="#B6CBEA"/></g></g></g><g><g><polygon fill="#3A3A77" points="43.1534,45.783 42.7822,45.9987 42.0782,45.5922 42.4493,45.3765      "/></g><g><polygon fill="#3A3A77" points="42.2854,45.2818 41.9142,45.4975 41.2108,45.0914 41.582,44.8757      "/></g><g><polygon fill="#3A3A77" points="41.7482,45.594 41.0854,45.9792 40.382,45.5731 41.0448,45.1879      "/></g><g><polygon fill="#3A3A77" points="45.7,48.84 45.0378,49.2248 44.3344,48.8187 44.9966,48.4339      "/></g><g><polygon fill="#3A3A77" points="41.2169,48.1792 40.5542,48.5643 39.8508,48.1582 40.5135,47.7731      "/></g><g><polygon fill="#3A3A77" points="38.6491,47.6604 37.9863,48.0455 37.0539,47.5072 37.7166,47.122      "/></g><g><polygon fill="#3A3A77" points="39.5171,48.1615 38.8543,48.5466 38.1509,48.1405 38.8137,47.7554      "/></g><g><polygon fill="#3A3A77" points="40.3851,48.6626 39.7223,49.0478 39.0189,48.6417 39.6817,48.2565      "/></g><g><polygon fill="#3A3A77" points="41.253,49.1638 40.5903,49.5489 39.8869,49.1428 40.5496,48.7577      "/></g><g enable-background="new    "><g><polygon fill="#3A3A77" points="42.6162,46.0951 41.9534,46.4803 41.2494,46.0738 41.9122,45.6887       "/></g><g><polygon fill="#3A3A77" points="41.3606,46.3347 40.6985,46.7195 39.5501,46.0565 40.2123,45.6717       "/></g><g><polygon fill="#3A3A77" points="43.4842,46.5963 42.8214,46.9814 42.1174,46.575 42.7802,46.1898       "/></g><g><polygon fill="#3A3A77" points="42.2286,46.8358 41.5665,47.2206 40.8624,46.8142 41.5246,46.4294       "/></g><g><polygon fill="#3A3A77" points="40.7403,46.9403 40.0775,47.3254 38.7176,46.5403 39.3804,46.1551       "/></g><g><polygon fill="#3A3A77" points="44.3516,47.097 43.6888,47.4822 42.9854,47.0761 43.6481,46.6909       "/></g><g><polygon fill="#3A3A77" points="45.7567,47.286 45.3855,47.5017 44.6821,47.0956 45.0533,46.8799       "/></g><g><polygon fill="#3A3A77" points="43.096,47.3366 42.4338,47.7214 41.7304,47.3153 42.3926,46.9305       "/></g><g><polygon fill="#3A3A77" points="41.6083,47.4414 40.9455,47.8265 40.2415,47.4201 40.9042,47.0349       "/></g><g><polygon fill="#3A3A77" points="45.2195,47.5982 44.5568,47.9833 43.8534,47.5772 44.5161,47.1921       "/></g><g><polygon fill="#3A3A77" points="46.6247,47.7871 46.2535,48.0028 45.5501,47.5967 45.9213,47.381       "/></g><g><polygon fill="#3A3A77" points="40.3489,47.6781 39.6862,48.0632 37.8858,47.0237 38.5485,46.6386       "/></g><g><polygon fill="#3A3A77" points="43.964,47.8377 43.3018,48.2225 42.5984,47.8164 43.2606,47.4316       "/></g><g><polygon fill="#3A3A77" points="42.4756,47.9422 41.8129,48.3273 41.1095,47.9212 41.7722,47.5361       "/></g><g><polygon fill="#3A3A77" points="46.0875,48.0993 45.4247,48.4845 44.7213,48.0784 45.3841,47.6932       "/></g><g><polygon fill="#3A3A77" points="44.832,48.3389 44.1698,48.7237 43.4664,48.3176 44.1286,47.9328       "/></g><g><polygon fill="#3A3A77" points="43.3436,48.4433 42.6809,48.8285 41.9775,48.4223 42.6402,48.0372       "/></g><g><polygon fill="#3A3A77" points="42.0849,48.6803 41.4222,49.0655 40.7188,48.6594 41.3815,48.2742       "/></g><g><polygon fill="#3A3A77" points="42.9529,49.1815 42.2902,49.5666 41.5861,49.1601 42.2489,48.775       "/></g></g><g><polygon fill="#3A3A77" points="51.832,50.7936 51.4608,51.0093 50.7574,50.6032 51.1286,50.3875      "/></g><g><polygon fill="#3A3A77" points="50.964,50.2925 50.5929,50.5082 49.8895,50.1021 50.2606,49.8863      "/></g><g><polygon fill="#3A3A77" points="50.096,49.7913 49.7249,50.007 49.0215,49.6009 49.3926,49.3852      "/></g><g><polygon fill="#3A3A77" points="52.1628,51.6069 51.5001,51.9921 50.796,51.5856 51.4588,51.2004      "/></g><g><polygon fill="#3A3A77" points="51.8107,53.3318 51.148,53.717 49.7881,52.9318 50.4509,52.5467      "/></g><g><polygon fill="#3A3A77" points="51.7753,52.3476 51.1131,52.7324 50.4091,52.3259 51.0712,51.9411      "/></g><g><polygon fill="#3A3A77" points="50.0393,51.3453 49.3771,51.7301 48.6737,51.324 49.3359,50.9392      "/></g><g><polygon fill="#3A3A77" points="49.4189,51.9509 48.7562,52.336 48.0528,51.9299 48.7155,51.5448      "/></g><g><polygon fill="#3A3A77" points="49.2959,53.8073 49.0161,53.9699 48.2808,53.5453 48.5606,53.3828      "/></g><g><polygon fill="#3A3A77" points="49.7709,54.5252 49.4911,54.6878 48.7558,54.2633 49.0356,54.1007      "/></g><g><polygon fill="#3A3A77" points="50.9789,53.8152 50.3161,54.2004 48.5294,53.1689 49.1922,52.7837      "/></g><g><polygon fill="#3A3A77" points="49.0276,52.6887 48.3649,53.0738 47.6614,52.6677 48.3242,52.2826      "/></g><g><polygon fill="#3A3A77" points="50.2869,52.452 49.6242,52.8372 48.9201,52.4307 49.5829,52.0455      "/></g><g><polygon fill="#3A3A77" points="50.9073,51.8465 50.2451,52.2313 49.5417,51.8251 50.2039,51.4403      "/></g><g><polygon fill="#3A3A77" points="51.2949,51.1058 50.6321,51.4909 49.9287,51.0848 50.5914,50.6996      "/></g><g><polygon fill="#3A3A77" points="47.4927,48.2883 47.1215,48.504 46.4181,48.0979 46.7893,47.8822      "/></g><g><polygon fill="#3A3A77" points="46.4243,51.1856 45.7615,51.5708 45.0581,51.1647 45.7209,50.7795      "/></g><g><polygon fill="#3A3A77" points="44.2116,48.9444 43.5489,49.3296 42.8454,48.9235 43.5082,48.5383      "/></g><g enable-background="new    "><g><polygon fill="#3A3A77" points="48.3607,48.7894 47.9895,49.0051 47.2855,48.5986 47.6567,48.3829       "/></g><g><polygon fill="#3A3A77" points="47.8235,49.1016 47.1607,49.4868 46.4567,49.0803 47.1195,48.6951       "/></g><g><polygon fill="#3A3A77" points="49.2281,49.2902 48.8569,49.5059 48.1535,49.0998 48.5247,48.8841       "/></g><g><polygon fill="#3A3A77" points="46.5679,49.3411 45.9058,49.7259 45.2018,49.3195 45.8639,48.9347       "/></g><g><polygon fill="#3A3A77" points="45.0796,49.4456 44.4168,49.8307 43.7134,49.4246 44.3762,49.0395       "/></g><g><polygon fill="#3A3A77" points="48.6909,49.6024 48.0281,49.9875 47.3247,49.5814 47.9875,49.1962       "/></g><g><polygon fill="#3A3A77" points="43.8203,49.6822 43.1575,50.0674 42.4541,49.6613 43.1169,49.2761       "/></g><g><polygon fill="#3A3A77" points="47.4353,49.8419 46.7732,50.2267 46.0698,49.8206 46.7319,49.4358       "/></g><g><polygon fill="#3A3A77" points="45.9476,49.9467 45.2848,50.3319 44.5808,49.9254 45.2436,49.5402       "/></g><g><polygon fill="#3A3A77" points="49.5589,50.1035 48.8961,50.4887 48.1927,50.0826 48.8555,49.6974       "/></g><g><polygon fill="#3A3A77" points="42.9884,50.1657 42.3256,50.5508 41.6222,50.1447 42.285,49.7596       "/></g><g><polygon fill="#3A3A77" points="44.6883,50.1834 44.0255,50.5685 43.3221,50.1624 43.9849,49.7773       "/></g><g><polygon fill="#3A3A77" points="48.3033,50.3431 47.6412,50.7279 46.9378,50.3217 47.5999,49.9369       "/></g><g><polygon fill="#3A3A77" points="46.8149,50.4475 46.1522,50.8326 45.4488,50.4265 46.1115,50.0414       "/></g><g><polygon fill="#3A3A77" points="50.4269,50.6046 49.7641,50.9898 49.0607,50.5837 49.7235,50.1985       "/></g><g><polygon fill="#3A3A77" points="43.8564,50.6668 43.1936,51.052 42.4902,50.6459 43.153,50.2607       "/></g><g><polygon fill="#3A3A77" points="49.1713,50.8442 48.5091,51.229 47.8057,50.8229 48.4679,50.4381       "/></g><g><polygon fill="#3A3A77" points="47.6829,50.9486 47.0202,51.3338 46.3168,50.9277 46.9795,50.5425       "/></g><g><polygon fill="#3A3A77" points="44.7244,51.1679 44.0616,51.5531 43.3582,51.147 44.021,50.7618       "/></g><g><polygon fill="#3A3A77" points="48.5509,51.4498 47.8882,51.8349 47.1848,51.4288 47.8475,51.0436       "/></g><g><polygon fill="#3A3A77" points="45.5924,51.6691 44.9296,52.0542 44.2262,51.6481 44.889,51.263       "/></g><g><polygon fill="#3A3A77" points="47.2923,51.6868 46.6295,52.0719 45.9255,51.6655 46.5882,51.2803       "/></g><g><polygon fill="#3A3A77" points="46.4604,52.1702 45.7976,52.5554 45.0936,52.1489 45.7563,51.7637       "/></g></g><g><polygon fill="#3A3A77" points="46.9555,48.6004 46.2927,48.9856 45.5893,48.5795 46.2521,48.1943      "/></g><g><polygon fill="#3A3A77" points="52.7,51.2947 52.3288,51.5104 51.6248,51.104 51.996,50.8883      "/></g><g><polygon fill="#3A3A77" points="54.0123,52.0524 53.6411,52.2681 52.4928,51.6051 52.864,51.3894      "/></g><g><polygon fill="#3A3A77" points="52.6426,52.8484 51.9805,53.2332 51.2771,52.8271 51.9392,52.4423      "/></g><g><polygon fill="#3A3A77" points="53.4752,52.3646 52.8124,52.7497 51.664,52.0867 52.3268,51.7016      "/></g><g><polygon fill="#3A3A77" points="44.8887,46.7849 44.5175,47.0006 43.8141,46.5945 44.1853,46.3788      "/></g><g><polygon fill="#3A3A77" points="44.0214,46.2841 43.6502,46.4998 42.9462,46.0933 43.3173,45.8776      "/></g><g><polygon fill="#3A3A77" points="48.0555,53.5349 47.7758,53.6975 47.0405,53.2729 47.3202,53.1103      "/></g><g><polygon fill="#3A3A77" points="47.5493,52.7989 46.8865,53.184 45.9616,52.65 46.6243,52.2649      "/></g><g><polygon fill="#3A3A77" points="48.1602,52.1879 47.4975,52.5731 46.7935,52.1666 47.4562,51.7814      "/></g><g><polygon fill="#3A3A77" points="45.5563,50.6845 44.8935,51.0697 44.1901,50.6635 44.8529,50.2784      "/></g><g><polygon fill="#3A3A77" points="48.9129,54.0299 48.6331,54.1925 47.8978,53.7679 48.1776,53.6053      "/></g><g><polygon fill="#3A3A77" points="42.121,49.6649 41.4583,50.0501 40.7543,49.6436 41.417,49.2584      "/></g></g><g><g><polygon fill="#B6CBEA" points="55.5149,53.6571 52.2561,55.5509 50.9632,54.8045 54.222,52.9107      "/></g><g><polygon fill="#B6CBEA" points="40.103,44.759 36.8442,46.6529 35.5513,45.9064 38.8101,44.0126      "/></g></g></g><g><g><g><polygon fill="#3887E5" points="45.5304,39.7252 45.5248,41.7024 43.1408,40.326 43.1464,38.3488      "/></g><g><polygon fill="#6262AA" points="44.0287,41.4314 44.0281,41.6332 43.1385,41.1196 43.1391,40.9178      "/></g><g><polygon fill="#83A1CC" points="45.5219,42.7276 45.5178,44.1728 43.1338,42.7964 43.1379,41.3512      "/></g><g><polygon fill="#6262AA" points="48.439,43.9777 48.4385,44.1795 47.5489,43.6659 47.5494,43.4641      "/></g><g><polygon fill="#6262AA" points="52.8507,46.5248 52.8501,46.7266 51.9605,46.2129 51.9611,46.0112      "/></g><g enable-background="new    "><g><polygon fill="#83A1CC" points="54.3438,47.821 54.3397,49.2662 51.9557,47.8898 51.9598,46.4446       "/></g><g><polygon fill="#3887E5" points="54.3523,44.8186 54.3467,46.7958 51.9627,45.4194 51.9683,43.4422       "/></g></g><g enable-background="new    "><g><polygon fill="#83A1CC" points="49.9322,45.2739 49.9281,46.7191 47.5441,45.3427 47.5482,43.8975       "/></g><g><polygon fill="#3887E5" points="49.9407,42.2715 49.9351,44.2487 47.5511,42.8723 47.5567,40.8951       "/></g><g><polygon fill="#6262AA" points="55.1408,42.2762 55.1349,44.3655 43.7234,37.7771 44.8254,37.367 43.7293,35.6878       "/></g></g><g><polygon fill="#6262AA" points="43.2182,35.3927 44.3143,37.0719 43.2123,37.482 42.3708,36.9962 42.3767,34.9069      "/></g></g></g><g><g><g><g><g><g><g><g enable-background="new    "><g><path d="M89.2273,84.2088l9.3354-5.1897c0.1333-0.0789,0.2057-0.1812,0.2064-0.28l0.0061-0.4802             c0.0023-0.1049-0.0654-0.2126-0.2077-0.2946l-15.1907-8.796c-0.2762-0.1582-0.7267-0.163-1.0019-0.0107l-9.3331,5.1936             c-0.1436,0.0794-0.2098,0.1834-0.2081,0.2862l-0.0061,0.4802c-0.0023,0.1049,0.067,0.2065,0.2054,0.2906l15.1924,8.7899             C88.5037,84.3603,88.9481,84.3633,89.2273,84.2088z" fill="#E1E9F4"/></g></g></g></g></g></g></g></g></g><g><g><g><g><g><g><g><g enable-background="new    "><g><path d="M89.2273,83.7676l9.3354-5.1897c0.1333-0.0789,0.2057-0.1812,0.2064-0.28l0.0061-0.4802             c0.0023-0.1049-0.0654-0.2126-0.2077-0.2946l-15.1907-8.796c-0.2762-0.1582-0.7267-0.163-1.0019-0.0107l-9.3331,5.1936             c-0.1436,0.0794-0.2098,0.1834-0.2081,0.2862l-0.0061,0.4802c-0.0023,0.1049,0.067,0.2065,0.2054,0.2906l15.1924,8.7899             C88.5037,83.919,88.9481,83.922,89.2273,83.7676z" fill="#83A1CC"/></g><path d="M89.2326,83.2833l9.3325-5.1918c0.277-0.1532,0.2782-0.4103,0.0016-0.5679l-15.1886-8.795            c-0.2789-0.1612-0.7271-0.1648-1.0041-0.0116l-9.3325,5.1918c-0.277,0.1532-0.2745,0.4082-0.0016,0.5678l15.1925,8.7929            C88.5075,83.4329,88.9556,83.4365,89.2326,83.2833z" fill="#B6CBEA"/><g><path d="M92.711,80.2626c0.2779,0.1609,0.7316,0.166,1.0095,0.0113             c0.2778-0.1547,0.2776-0.4123-0.0004-0.5732c-0.278-0.1609-0.7316-0.166-1.0094-0.0114             C92.4328,79.8441,92.433,80.1017,92.711,80.2626z" fill="#83A1CC"/></g><g><g><path d="M79.8635,70.7139c0.0863,0.0499,0.2271,0.0515,0.3133,0.0035              c0.0862-0.048,0.0862-0.128-0.0001-0.1779c-0.0863-0.0499-0.2271-0.0515-0.3133-0.0035              C79.7771,70.5839,79.7772,70.6639,79.8635,70.7139z" fill="#83A1CC"/></g><g><path d="M79.3278,71.0102c0.0863,0.0499,0.2271,0.0515,0.3133,0.0035              c0.0862-0.048,0.0862-0.128-0.0001-0.1779c-0.0863-0.0499-0.2271-0.0515-0.3133-0.0035              C79.2415,70.8802,79.2415,70.9602,79.3278,71.0102z" fill="#83A1CC"/></g><g><path d="M78.7921,71.3064c0.0863,0.0499,0.2271,0.0515,0.3133,0.0035              c0.0862-0.048,0.0862-0.128-0.0001-0.1779c-0.0863-0.0499-0.2271-0.0515-0.3133-0.0035              C78.7058,71.1765,78.7059,71.2565,78.7921,71.3064z" fill="#83A1CC"/></g><g><path d="M78.2565,71.6027c0.0863,0.0499,0.2271,0.0515,0.3133,0.0035              c0.0862-0.048,0.0862-0.128-0.0001-0.1779c-0.0863-0.05-0.2271-0.0515-0.3133-0.0035              C78.1701,71.4728,78.1702,71.5528,78.2565,71.6027z" fill="#83A1CC"/></g><g><path d="M77.7208,71.899c0.0863,0.0499,0.2271,0.0515,0.3133,0.0035              c0.0862-0.048,0.0862-0.128-0.0001-0.1779c-0.0863-0.0499-0.2271-0.0515-0.3133-0.0035              C77.6345,71.7691,77.6345,71.8491,77.7208,71.899z" fill="#83A1CC"/></g><g><path d="M77.1852,72.1953c0.0863,0.0499,0.2271,0.0515,0.3133,0.0035              c0.0862-0.048,0.0862-0.128-0.0001-0.1779c-0.0863-0.05-0.2271-0.0515-0.3133-0.0035              C77.0988,72.0654,77.0989,72.1454,77.1852,72.1953z" fill="#83A1CC"/></g></g></g></g></g></g></g></g></g><g><polygon fill="#FFFFFF" points="96.533,77.1906 87.3659,82.2846 74.1176,74.6157 83.2848,69.5216     "/><g><polygon fill="#83A1CC" points="96.533,77.1906 95.1184,77.9769 81.8701,70.308 83.2848,69.5216      "/></g><g><path d="M95.2568,77.0099c-0.1094-0.0634-0.288-0.0653-0.3974-0.0045       c-0.1093,0.061-0.1092,0.1625,0.0001,0.2257c0.1095,0.0634,0.2881,0.0655,0.3974,0.0045       C95.3663,77.1746,95.3663,77.0733,95.2568,77.0099z" fill="#DEE7F8"/><path d="M94.1492,76.5943c-0.1093,0.061-0.1093,0.1623,0.0001,0.2257c0.1094,0.0634,0.288,0.0653,0.3974,0.0045       c0.1094-0.061,0.1093-0.1625-0.0001-0.2257C94.4372,76.5353,94.2586,76.5333,94.1492,76.5943z" fill="#DEE7F8"/><path d="M93.439,76.1832c-0.1093,0.0608-0.1092,0.1623,0.0001,0.2257       c0.1095,0.0632,0.2881,0.0653,0.3974,0.0043c0.1094-0.0608,0.1093-0.1623-0.0001-0.2255       C93.727,76.1243,93.5484,76.1222,93.439,76.1832z" fill="#DEE7F8"/></g><g><g><polygon fill="#3887E5" points="88.4169,77.3419 86.9291,78.1703 88.9914,79.3642 90.4792,78.5357       "/></g><g><polygon fill="#6262AA" points="87.7765,79.1666 87.6247,79.2512 88.3943,79.6967 88.5461,79.6121       "/></g><g><polygon fill="#83A1CC" points="86.1577,78.5999 85.0702,79.2054 87.1325,80.3993 88.22,79.7937       "/></g><g><polygon fill="#6262AA" points="83.9613,76.958 83.8095,77.0426 84.5791,77.4881 84.7309,77.4035       "/></g><g><polygon fill="#6262AA" points="80.145,74.7488 79.9932,74.8333 80.7628,75.2788 80.9146,75.1943       "/></g><g enable-background="new    "><g><polygon fill="#83A1CC" points="78.5262,74.182 77.4387,74.7876 79.501,75.9814 80.5885,75.3759        "/></g><g><polygon fill="#3887E5" points="80.7854,72.924 79.2976,73.7525 81.3599,74.9463 82.8477,74.1179        "/></g></g><g enable-background="new    "><g><polygon fill="#83A1CC" points="82.3425,76.3913 81.255,76.9968 83.3173,78.1907 84.4048,77.5851        "/></g><g><polygon fill="#3887E5" points="84.6017,75.1333 83.1139,75.9617 85.1762,77.1556 86.664,76.3271        "/></g><g><polygon fill="#6262AA" points="82.3626,71.2795 80.7905,72.1549 90.662,77.8695 90.4974,76.8815 92.2342,76.9941        "/></g></g><g><polygon fill="#6262AA" points="92.6763,77.2501 90.9396,77.1374 91.1042,78.1255 91.8321,78.5469 93.4043,77.6715       "/></g></g></g></g></g><g><path d="M67.6676,73.0947c-0.6493,0.0478-2.2152,0.9644-3.0555,1.0122c0.1432,0.1527,0.2578,0.3054,0.2864,0.4296    c0,0,0.0668,0.3247-0.7352,0.0382c-0.5443,0.6014-1.3941,1.5849-1.8429,2.2153c-0.21,0.2958-0.3723,0.5919-0.4869,0.907    c-0.8785,2.5302-2.5494,4.1249-2.5494,4.1249c-0.3628,0.5536-2.282,2.8547-2.9313,3.8669c0,0.0096-0.0095,0.0096-0.0095,0.0191    c0.8689,0,1.7282,0.0287,2.3871,0.0669c1.7569,0.1145,0.3723,4.0771,0.3723,4.0771c-0.0191,0-0.0382,0-0.0573-0.0096    c0,0.0573,0,0.1049,0.0191,0.1431c0.0668,0.1243-0.0382,0.6112-0.0382,0.6303c0,0.0191-0.1624,0.6397-0.2292,0.6683    c-0.0668,0.0287-0.1336,0.0096-0.1336-0.0669c-0.0096-0.0667,0.105-0.5348,0.105-0.5539    c-0.0096-0.0093-0.0573-0.038-0.0955,0.0382c-0.0382,0.0765-0.1814,0.8213-0.3724,0.8308    c-0.1528,0.0096-0.1337-0.0669-0.105-0.1622c0.0382-0.086,0.1909-0.6399,0.1909-0.6399s-0.0096-0.0382-0.0573,0.0191    c-0.0573,0.0574-0.1623,0.6779-0.3342,0.8688c-0.0191,0.0191-0.1241,0.0765-0.1528-0.0571    c-0.0191-0.1434,0.2005-0.8786,0.2005-0.8786s-0.0382-0.0476-0.0859,0.0096c-0.0382,0.0669-0.1719,0.6303-0.2674,0.7448    c-0.0096,0.0096-0.1337,0.0287-0.1337-0.0953c-0.0096-0.1529,0.0382-0.4679,0.1814-0.8213    c0.1337-0.3245,0.0287-0.2291,0.0287-0.2291s-0.191,0.1051-0.2197,0.1434c-0.0382,0.0284-0.401,0.1718-0.5347,0.0189    c0,0,0.086-0.0478,0.191-0.0953c0.1146-0.0382,0.3437-0.2674,0.3437-0.2674s0.1146-0.1336,0.3438-0.2291    c0.1241-0.0573,0.21-0.1338,0.2769-0.2291c-0.0096-0.0096-0.0191-0.0096-0.0191-0.0191c0.3151-1.9383-0.6397-2.6831-0.6397-2.6831    c-1.2317,0.2196-2.3011,0.3723-3.0172,0.4201h-0.0096c-0.0955,0.0287-0.2005,0.0478-0.3151,0.0478l-1.8619,0.1147    c-0.0859,0.0573-0.1623,0.1145-0.2291,0.1718c-0.0286,0.0382-0.0286,0.086,0,0.1431c0.0764,0.1625,0.2483,0.1147,0.3533,0.2769    c0.2864,0.4487-0.1337,1.0122-0.5729,1.4322v0.0096c0,0.172-0.0955,0.4392-0.1432,0.7066s-0.506,0.4012-0.8403,0.2387    c-0.2673-0.1336-0.6874-0.2769-0.9453-0.3149c-1.2699-0.2294-2.473-1.0313-1.4418-2.1675    c0.5061-0.5539,0.9071-0.8021,1.2222-0.9548c-0.6015-0.2769-1.4514-0.9644,0.1432-2.2439    c1.7951-1.4418,3.4279-4.144,3.8193-4.4876c0-0.0191,0.0096-0.0191,0.0096-0.0191c0.1719-0.4012,0.5347-0.8975,1.3081-1.356    c0.7639-0.4485,1.4418-1.0597,1.9383-1.5563c0.401-0.4105,0.7161-0.8497,0.993-1.3082c0.8498-1.4033,3.0268-2.9981,3.0268-2.9981    c0.0096,0,0.0096,0,0.0191,0c0.0191-0.124,0.086-0.3438,0.2387-0.5252c0.0191-0.0191,0.0382-0.0382,0.0668-0.0667    c0.0955-0.0956,0.2769-0.2578,0.3533-0.2769c0.0955-0.0287,0.2578,0.0096,0.4297,0.0667    c-0.0382-0.124-0.0668-0.2005-0.0668-0.2005s0.8021-0.6014,0.8784-0.6014c0.0764,0,1.1935,0.1336,1.1935,0.1336l-0.191,0.869    c0.086-0.086,0.1814-0.1625,0.2292-0.172c0.3437-0.1049,1.3367,0.5634,1.3081,0.5826c-0.0191,0.0191-0.1146,0.124-0.1241,0.1336    c0.1241,0.0765,1.6996-0.5823,2.7976-0.4296C68.0781,72.5982,68.546,73.0183,67.6676,73.0947z" fill="#E1E9F4"/><g><g><path d="M61.8679,70.8171l1.3482-0.5164c0.7648,0.6525,1.1531,0.4443,2.1259,0.4844      c0.9609,0.0559,0.6618,0.426,0.6618,0.426c-0.2842,0.3323-1.1681,0.6646-1.5484,0.7528      c-0.1802,0.0401-0.3643,0.0479-0.5485,0.0479c-0.1561,0-0.5524,0.0295-0.7085,0.0495c0.004,0.0199,0.012,0.1922,0.016,0.2201      c0.0079,0.0401-1.2613,0.3351-1.4655,0.0348c-0.0441-0.0641-0.0841-0.3443-0.0921-0.5124      c-0.008-0.0442-0.008-0.0801-0.008-0.1042C61.6449,71.2511,61.8679,70.8171,61.8679,70.8171z" fill="#2A2A5E"/><g><g><g><g><g><g><g><g><g><g><g><g><g><g><path d="M65.525,45.5813c0,0-2.7585,0.6814-2.7749,0.8359                    c-0.0004,0.0558-0.2405,2.861-0.22,3.5007c0.0253,1.0423,2.7813,0.6571,2.422-0.0595                    c-0.2317-0.4705-0.5032-0.8057-0.2373-1.0479c0.1738-0.1583,0.2719-0.0105,0.477-0.1562                    C66.1586,47.9543,65.525,45.5813,65.525,45.5813z" fill="#ECB4BF"/></g></g></g></g></g></g></g></g></g></g></g></g></g><g><path d="M60.9735,60.9026c-0.6164-1.8208,0.1472-3.0298,0.3153-3.3379l3.0819,0.9803        c0,0,0.2566,2.7552-0.7595,6.2209c-0.1278,0.4361-0.1996,0.8832-0.2333,1.3363c-0.0969,1.3023-0.0343,3.7039,0.0174,4.3164        c-0.2588,0.4389-0.9924,0.6421-1.5992,0.52c0,0-0.6747-3.0149-0.398-5.127c0.0899-0.6864,0.1366-1.3754,0.0871-2.0657        C61.4248,62.9075,61.2867,61.828,60.9735,60.9026z" fill="#3A3A77"/></g><g><path d="M63.9477,71.9636l1.3482-0.5164c0.7648,0.6525,1.1531,0.4443,2.1259,0.4844        c0.9609,0.0559,0.6618,0.426,0.6618,0.426c-0.2842,0.3323-1.1681,0.6646-1.5484,0.7528        c-0.1802,0.0401-0.3643,0.0479-0.5485,0.0479c-0.1561,0-0.5524,0.0295-0.7085,0.0495c0.004,0.0199,0.012,0.1922,0.016,0.2201        c0.0079,0.0401-1.2613,0.3351-1.4655,0.0348c-0.0441-0.0641-0.0841-0.3443-0.0921-0.5124        c-0.008-0.0442-0.008-0.0801-0.008-0.1042C63.7247,72.3977,63.9477,71.9636,63.9477,71.9636z" fill="#2A2A5E"/><path d="M62.909,61.8448c-0.7208-1.7082-0.2377-3.4404-0.0697-3.7482l3.6111,1.5555        c0,0,0.2566,2.7552-0.7596,6.2214c-0.1278,0.4358-0.1995,0.883-0.2333,1.336c-0.0969,1.3023-0.0343,3.7039,0.0174,4.3161        c-0.2589,0.4389-0.9924,0.6424-1.5992,0.5203c0,0-0.6588-2.9435-0.4076-5.0515        C63.5575,66.2449,63.2868,62.7401,62.909,61.8448z" fill="#4C4A8B"/></g><path d="M60.8289,51.277c-0.5805-3.243,1.8897-2.7265,1.8897-2.7265c0.0801,0.7047,1.2051,0.9489,1.9617,0.7487       l1.4372,1.082c0.1087,0.0817,0.2049,0.1777,0.28,0.2911c0.1162,0.1754,0.2001,0.4662,0.2605,0.7833       c0.1307,0.6862,0.1321,1.3889,0.0586,2.0835c-0.1628,1.5385-0.1809,5.2649-0.2668,6.1133c0,0-5.0736,2.1995-5.5998-1.0376       C60.7564,58.0376,61.3014,53.9394,60.8289,51.277z" fill="#3887E5"/><path d="M65.5602,45.0158c-0.3057,0.0165-0.7477-0.0246-0.9833-0.099       c-1.1948-0.3774-2.7184-0.0248-2.6606,1.8425c0.0578,1.6608,0.5123,1.9581,0.5867,2.4622       c0.0165,0.1321,0.1074,0.2396,0.2313,0.2808c0.4462,0.1241,2.1435,0.6594,1.946-0.2031       c-0.4998-2.1829-0.0419-2.4027,0.1482-2.1962c0.1983,0.2146,0.3801,0.6443,0.3801,0.6443l0.1539-0.0549       c0.0248-0.2148-0.3512-0.4753,0.2308-0.9001c0.1841-0.1343,0.2974-0.6197,0.4875-1.0576       C66.2295,45.3795,65.9485,44.991,65.5602,45.0158z" fill="#753025"/></g></g><g><path d="M72.3925,48.1052c-0.0512,0.0842-0.2811,0.7025-0.296,0.7175c-0.0148,0.0147-0.064,0.0171-0.0479-0.0908      c0.0163-0.1076,0.4132-1.0787,0.2706-1.1805c-0.1236-0.0882-0.1638,0.014-0.1951,0.1369      c-0.0312,0.1226-0.2904,0.8626-0.2904,0.8626s-0.0318,0.0365-0.0339-0.0573c-0.0022-0.0936,0.3306-0.8876,0.3276-1.1981      c-0.0004-0.0414-0.0519-0.1624-0.1656-0.0087c-0.1139,0.1539-0.4424,1.1503-0.4424,1.1503s-0.0625,0.04-0.056-0.059      c0.0068-0.099,0.2846-0.8418,0.2867-1.02c0.0003-0.0232-0.0862-0.1083-0.1737,0.0379      c-0.1104,0.1844-0.2938,0.5849-0.4167,1.0766c-0.114,0.4562-0.1328,0.2887-0.1328,0.2887s-0.0779-0.2262-0.0842-0.2828      c-0.0065-0.0569-0.2034-0.4162-0.4187-0.2899c0,0,0.0395,0.1018,0.0968,0.2054c0.0575,0.1036,0.0933,0.4978,0.0933,0.4978      s-0.0008,0.2197,0.1183,0.452c0.1191,0.2316,0.0907,0.4836-0.0137,0.7996l0.7823,0.1989c0,0,0.1407-0.4403,0.2743-0.5556      c0.1338-0.1153,0.3905-0.7493,0.4003-0.7732c0.0096-0.0236,0.3104-0.8478,0.2747-0.9129      C72.5145,48.0357,72.4436,48.0215,72.3925,48.1052z" fill="#ECB4BF"/><g><path d="M64.5677,51.0034c0.2722-0.8142,1.0891-0.9193,1.7722-0.399c0.5512,0.4199,1.3144,1.1425,2.1701,2.0349       c0,0,1.2937-0.3997,2.3641-2.8769c0.1661-0.1428,0.6572,0.0898,0.9352,0.2036c0,0-1.5911,5.4409-3.0923,4.6788       c-1.041-0.5286-2.5846-1.4611-3.6626-2.1944C64.5858,52.1313,64.3879,51.5408,64.5677,51.0034z" fill="#3887E5"/></g></g></g></g></g></svg>