<?xml version="1.0" ?><!DOCTYPE svg  PUBLIC '-//W3C//DTD SVG 1.1//EN'  'http://www.w3.org/Graphics/SVG/1.1/DTD/svg11.dtd'><svg enable-background="new 0 0 126 126" id="Layer_1" version="1.1" viewBox="0 0 126 126" xml:space="preserve" xmlns="http://www.w3.org/2000/svg" xmlns:xlink="http://www.w3.org/1999/xlink"><g><path d="M105.7035,83.5536c-1.4854-0.2162-15.5875,4.404-17.0822,10.7218   c-1.4948,6.3265-12.7766,12.9114-17.5805,11.285c-4.804-1.6264-11.1027,0.1129-11.1027,0.1129l-3.9673,1.9179l-0.9025,0.4324   h-0.0094L1.1152,76.8779l67.3129-39.1262l52.2327,30.1588c1.6452,0.9493,3.0177,2.3595,3.7322,4.1176   C128.3603,81.7299,107.0667,83.7418,105.7035,83.5536z" fill="#F3F6FD"/><g><g><g><g><path d="M81.0938,63.4634l-0.18,5.2798c0,0.1304-0.19,0.3003-0.49,0.4805c-0.07,0.0498-0.14,0.0898-0.23,0.1396       l-0.74,0.46c-0.29,0.1699-0.7,0.3604-1.14,0.5103l-10,3.3599c-0.05,0.02-0.09,0.0303-0.13,0.04l-0.18,5.6802       c-0.01,0.25-0.38,0.5898-0.97,0.9399c0.01,0.0098,0.01,0,0.02,0l-1.86,1.1396c-0.57,0.3403-1.35,0.7002-2.19,0.9805       l-19.26,6.48c-1.71,0.5796-3.1,0.6499-3.0699,0.1699l0.3199-10.1602c0.02-0.25,0.38-0.5898,0.95-0.9399l1.63-0.9902       c0.01,0,0.02-0.0098,0.03-0.0195c0.58-0.3804,1.44-0.8003,2.41-1.1201l19.24-6.48c0.59-0.2002,1.14-0.3301,1.61-0.4102       l0.02-0.5c0.01-0.1299,0.19-0.2998,0.49-0.4897l0.97-0.5801c0.3-0.1802,0.7-0.3701,1.15-0.52l10-3.3701       C80.3838,63.2431,81.1039,63.2036,81.0938,63.4634z" fill="#E1E9F4"/></g></g></g></g><g><path d="M65.2138,97.2534c-0.18-2.27,0.87-3.6699,1.27-6.3999c0,0,0,0,0-0.0103c0,0,0.96-1.5396-0.64-1.21    c-0.5,0.1001-1.28-1.25-1.89-1.04l-0.68,0.2803l-0.1,0.98c0.13,0,0.6-0.02,0.7599-0.0103h0.01    c-0.01,0.2002-0.05,0.6499-0.1,1.2104c-0.04-0.1602-0.08-0.2705-0.08-0.2705s-0.19-0.79-2.26-0.6499    c-2.1,0.1304-1.88-0.3398-2.3-0.1597c-0.31,0.1299-0.34,0.5195-0.07,0.6597c0.44,0.2202,1.03,0.52,1.65,0.8101l-0.21,1.5801    c-0.26,1.1499-0.45,2.04-1.09,3.1499c-1.9901,3.48-1.32,5.21-1.32,5.21s-0.55,2.77-0.97,4.3999    c-0.81-0.4497-1.65-0.8799-2.31-1.1797c-0.8323-0.374-1.7344,0.7671-2.404,1.9312l1.2601,0.7275    c0.7129-0.7432,1.0139-0.7886,1.0139-0.7886c0.4155,0.4258,0.8113,0.8096,1.1751,1.1377l0.0419-0.02l3.9672-1.918    c0,0,1.5531-0.4277,3.7032-0.6606c0.1672-1.2866,0.3501-2.3706,0.3726-2.8091C64.0138,102.2036,65.4738,100.5137,65.2138,97.2534z    " fill="#E1E9F4"/></g><g><g><path d="M100.0687,77.999c-0.0043-0.0263-0.0001-0.0459-0.0145-0.0722c0.0028-0.0132,0.0057-0.0263-0.0015-0.0395     l-0.1239-3.0045c-0.0077-0.1971-0.2481-0.381-0.7084-0.519c-0.872-0.2696-2.322-0.2696-3.32,0     c-0.5197,0.138-0.8507,0.3287-0.9431,0.5258l-1.4145,3.0436l-0.0014,0.0064c-0.0142,0.0199-0.0185,0.0398-0.0327,0.0594h0.01     c-0.2063,0.4009,0.0132,0.8217,0.6868,1.1309c0.2632,0.1245,0.5734,0.2167,0.9206,0.2761     c-0.0014,0.0064,0.0072,0.0128,0.0058,0.0196c0.0275,0.1512-0.0565,0.3091-0.159,0.4603     c-0.0697,0.0918-0.1396,0.1839-0.2551,0.2561c-0.1612,0.0985-0.3839,0.1579-0.5795,0.2302     c-0.6223,0.2433-0.9628,0.6641-1.0876,1.0586c-0.0482,0.1313-0.0765,0.2629-0.0334,0.3878     c0.0865,0.2956,0.534,0.493,0.7046,0.7691c0.132,0.2234,0.0854,0.4866,0.0417,0.7364c-0.0677,0.3614-0.1169,0.7296-0.0304,1.0715     c0.0865,0.3419,0.3158,0.6706,0.7578,0.894c0.2889,0.1448,1.1553,0.4404,1.8188,0.1448     c0.2769-0.1249,0.5366-0.2632,0.6947-0.4404c0.533-0.572,0.3177-1.0124,0.0779-1.5713     c-0.0675-0.1512-0.1335-0.3091-0.0782-0.4735c0.0567-0.1708,0.2649-0.3483,0.5547-0.3942     c0.4042-0.0658,0.8073,0.0591,1.1713-0.0526c0.1828-0.0594,0.3037-0.2497,0.3478-0.3155     c0.1665-0.2629-0.0142-0.5852-0.2618-0.7823c-0.1689-0.1448-0.4277-0.2433-0.6422-0.3618     c-0.2132-0.1249-0.3778-0.2892-0.3168-0.4799c0.0681-0.2234,0.4262-0.4009,0.7316-0.5653     c0.5792-0.3223,1.1039-0.7627,0.9373-1.1504c-0.0071-0.0132-0.0057-0.0199-0.0229-0.0331     C99.8872,78.5643,100.0794,78.2751,100.0687,77.999z" fill="#E1E9F4"/></g></g><g><g><path d="M30.2231,82.4901c-0.0044-0.0263-0.0001-0.0459-0.0145-0.0722c0.0028-0.0132,0.0057-0.0263-0.0015-0.0395     l-0.1239-3.0045c-0.0077-0.1971-0.2481-0.381-0.7084-0.519c-0.872-0.2696-2.322-0.2696-3.32,0     c-0.5197,0.138-0.8507,0.3287-0.9431,0.5258l-1.4145,3.0436l-0.0014,0.0064c-0.0142,0.0199-0.0185,0.0398-0.0327,0.0594h0.01     c-0.2063,0.4009,0.0132,0.8217,0.6868,1.1309c0.2632,0.1245,0.5734,0.2167,0.9206,0.2761     c-0.0014,0.0064,0.0072,0.0128,0.0058,0.0196c0.0275,0.1512-0.0565,0.3091-0.159,0.4603     c-0.0697,0.0918-0.1396,0.1839-0.2551,0.2561c-0.1612,0.0985-0.3839,0.1579-0.5795,0.2301     c-0.6223,0.2433-0.9628,0.6641-1.0876,1.0586c-0.0482,0.1313-0.0765,0.2629-0.0334,0.3878     c0.0865,0.2956,0.534,0.493,0.7046,0.7691c0.132,0.2234,0.0854,0.4866,0.0417,0.7364c-0.0677,0.3614-0.1169,0.7296-0.0304,1.0715     c0.0865,0.3419,0.3158,0.6706,0.7578,0.894c0.2889,0.1448,1.1553,0.4404,1.8188,0.1448     c0.2769-0.1249,0.5366-0.2632,0.6947-0.4404c0.533-0.572,0.3177-1.0124,0.0779-1.5713     c-0.0675-0.1512-0.1335-0.3091-0.0782-0.4735c0.0567-0.1708,0.2649-0.3483,0.5547-0.3942     c0.4042-0.0658,0.8073,0.0591,1.1714-0.0526c0.1828-0.0594,0.3037-0.2497,0.3478-0.3155     c0.1665-0.2629-0.0142-0.5852-0.2618-0.7823c-0.1689-0.1448-0.4277-0.2433-0.6422-0.3618     c-0.2132-0.1249-0.3778-0.2892-0.3169-0.4799c0.0681-0.2234,0.4262-0.4009,0.7316-0.5653     c0.5793-0.3223,1.1039-0.7627,0.9373-1.1504c-0.0071-0.0132-0.0057-0.0199-0.0229-0.0331     C30.0415,83.0553,30.2337,82.7661,30.2231,82.4901z" fill="#E1E9F4"/></g></g><polygon fill="#FDFEFF" points="120.2992,67.7017 81.9876,89.6711 72.8198,84.378 111.1317,62.4086 110.5813,62.0909    72.2694,84.0603 43.6751,67.5515 81.9882,45.5811 81.4379,45.2635 43.1247,67.2338 33.9618,61.9434 72.2753,39.9731    71.725,39.6554 4.1518,78.631 4.7021,78.9491 33.5283,62.1954 42.6912,67.4854 13.8648,84.239 14.4151,84.5571 43.2416,67.803    52.4887,73.1421 23.6621,89.8958 24.0538,90.1221 52.8805,73.3684 62.2069,78.7529 33.3801,95.507 33.7669,95.7301 62.5937,78.976    71.8359,84.3123 43.0089,101.0665 43.5591,101.3841 72.3863,84.63 81.5541,89.9231 52.7268,106.6773 53.2772,106.9949    120.8496,68.0194  "/><g><g><g><g><g><g><g enable-background="new    "><path d="M68.147,19.2856l-1.8842-1.0991c-0.5756-0.3221-1.3656-0.2918-2.2254,0.2158L44.4445,29.709          c-1.7391,1.0039-3.1581,3.4905-3.1475,5.5151l0.1023,42.7684c0.0096,1.0285,0.3674,1.7554,0.9477,2.0938l1.8999,1.0946          C43.6671,80.8426,67.5772,18.9532,68.147,19.2856z" fill="#4C4A8B"/><path d="M69.0952,21.3708c-0.0051-2.0319-1.4183-2.8841-3.1699-1.8732L46.3425,30.8013          c-1.7443,1.0069-3.1568,3.4902-3.1517,5.5219l0.1073,42.7649c0.0051,2.0494,1.426,2.8884,3.1703,1.8815l19.5829-11.3034          c1.7516-1.0112,3.1564-3.4812,3.1513-5.5306L69.0952,21.3708z" fill="#B6CBEA"/></g></g><path d="M52.5589,29.224c-0.0004-0.1574,0.1141-0.3591,0.2583-0.442l6.756-3.8998        c0.1444-0.0834,0.2504-0.0091,0.2507,0.1483c0.0001,0.1685-0.1049,0.3641-0.2493,0.4475l-6.756,3.8999        C52.6749,29.461,52.559,29.3924,52.5589,29.224z" fill="#83A1CC"/><g><path d="M53.6026,74.1389c0.0017,0.6628,0.4503,0.9277,1.0169,0.6007l3.1679-1.8285         c0.5666-0.3271,1.0049-1.104,1.0032-1.7667c-0.0017-0.6627-0.4426-0.9322-1.0092-0.6051l-3.1679,1.8285         C54.047,72.6948,53.601,73.4762,53.6026,74.1389z" fill="#83A1CC"/></g></g><polygon fill="#FFFFFF" points="44.5094,76.8623 44.4368,36.1122 67.8471,22.5771 67.946,63.3417      "/></g><g><g><polygon fill="#B6CBEA" points="65.8358,37.2959 65.8382,38.1539 57.5936,42.914 57.5912,42.0559       "/></g><g><polygon fill="#B6CBEA" points="65.8488,41.8721 65.8512,42.7302 57.6066,47.4902 57.6042,46.6322       "/></g><g><polygon fill="#B6CBEA" points="62.2,41.6868 62.2024,42.5448 57.6001,45.202 57.5977,44.3439       "/></g><g enable-background="new    "><g><path d="M65.4908,31.3735l0.7925,0.4516l-0.2,0.3435l-0.7899-0.4502         c-0.185,0.2676-0.4032,0.4783-0.6241,0.6059c-0.2667,0.154-0.5337,0.1912-0.735,0.0737         c-0.4077-0.2295-0.4098-0.9854-0.0048-1.687c0.2013-0.3485,0.467-0.6182,0.733-0.7718         c0.2661-0.1536,0.5324-0.1912,0.735-0.0758c0.1962,0.1118,0.3063,0.3494,0.3072,0.6675         C65.7054,30.7965,65.6274,31.0901,65.4908,31.3735z M65.201,31.4386c0.1443-0.247,0.2224-0.5114,0.2218-0.7448         c-0.0006-0.2305-0.08-0.4041-0.2252-0.4839c-0.1478-0.0842-0.3411-0.0575-0.5341,0.054         c-0.193,0.1115-0.3884,0.3091-0.5352,0.5634c-0.2937,0.5086-0.2921,1.0603,0.0035,1.2287         c0.1478,0.0842,0.3417,0.057,0.5354-0.0549C64.8607,31.8893,65.0541,31.6929,65.201,31.4386" fill="#FFFFFF"/></g><g><path d="M62.9126,30.117l4.069-2.3492l0.0133,4.7077l-4.0689,2.3492L62.9126,30.117z M66.0833,32.1686         l0.2-0.3435l-0.7925-0.4516c0.1366-0.2834,0.2146-0.577,0.2139-0.8426c-0.0009-0.3181-0.111-0.5557-0.3072-0.6675         c-0.2026-0.1154-0.469-0.0778-0.735,0.0758c-0.2661,0.1536-0.5318,0.4233-0.733,0.7718         c-0.4051,0.7016-0.4029,1.4575,0.0048,1.687c0.2013,0.1175,0.4683,0.0803,0.735-0.0737         c0.221-0.1276,0.4392-0.3383,0.6241-0.6059L66.0833,32.1686" fill="#9EB5DF"/></g><g><path d="M64.6634,30.2638c0.193-0.1114,0.3863-0.1382,0.5341-0.054         c0.1452,0.0798,0.2246,0.2534,0.2252,0.4839c0.0007,0.2334-0.0775,0.4978-0.2218,0.7448         c-0.1468,0.2543-0.3403,0.4507-0.5339,0.5625c-0.1937,0.1118-0.3876,0.1391-0.5354,0.0549         c-0.2956-0.1684-0.2972-0.7201-0.0035-1.2287C64.275,30.5729,64.4703,30.3753,64.6634,30.2638z" fill="#9EB5DF"/></g><g><polygon fill="#DEE7F8" points="62.9126,30.117 62.926,34.8246 66.9949,32.4754 45.3294,44.984 45.3161,40.2763        "/></g></g><g><polygon fill="#FFFFFF" points="58.4361,56.5267 58.4374,56.9617 53.9976,59.525 53.9964,59.09       "/></g><g><polygon fill="#FFFFFF" points="58.4397,57.7904 58.441,58.2224 54.0012,60.7857 54,60.3538       "/></g><g><polygon fill="#FFFFFF" points="58.4326,55.266 58.4338,55.7008 53.994,58.2641 53.9928,57.8293       "/></g><g><polygon fill="#FFFFFF" points="58.429,54.0021 58.4302,54.4371 53.9904,57.0004 53.9892,56.5654       "/></g><g><path d="M53.4681,55.8285l5.4761-3.1616l0.0178,6.2925l-5.4761,3.1616L53.4681,55.8285z M58.4374,56.9617        l-0.0012-0.435L53.9964,59.09l0.0012,0.435L58.4374,56.9617 M58.4302,54.4371l-0.0012-0.435l-4.4398,2.5633l0.0012,0.435        L58.4302,54.4371 M58.4338,55.7008l-0.0012-0.4348l-4.4398,2.5633l0.0012,0.4348L58.4338,55.7008 M58.441,58.2224        l-0.0012-0.432L54,60.3538l0.0012,0.432L58.441,58.2224" fill="#B6CBEA"/></g><g><polygon fill="#FFFFFF" points="66.5237,49.3286 66.5249,49.7636 62.0852,52.3269 62.0839,51.8919       "/></g><g><polygon fill="#FFFFFF" points="66.5309,51.8532 66.5321,52.2882 62.0923,54.8515 62.0911,54.4165       "/></g><g><polygon fill="#FFFFFF" points="66.5345,53.117 66.5357,53.5489 62.0959,56.1122 62.0947,55.6803       "/></g><g><polygon fill="#FFFFFF" points="66.5273,50.5925 66.5285,51.0273 62.0888,53.5906 62.0875,53.1558       "/></g><g><path d="M61.5629,51.155l5.4761-3.1616l0.0178,6.2925l-5.4761,3.1616L61.5629,51.155z M66.5321,52.2882        l-0.0012-0.435l-4.4398,2.5633l0.0012,0.435L66.5321,52.2882 M66.525,49.7636l-0.0012-0.435l-4.4398,2.5633l0.0012,0.435        L66.525,49.7636 M66.5285,51.0273l-0.0012-0.4348l-4.4398,2.5633l0.0012,0.4348L66.5285,51.0273 M66.5357,53.5489        l-0.0012-0.432l-4.4398,2.5633l0.0012,0.432L66.5357,53.5489" fill="#B6CBEA"/></g><g><polygon fill="#83A1CC" points="63.5149,62.1862 63.5209,64.2993 58.0448,67.4609 58.0388,65.3479       "/></g><g enable-background="new    "><g><polygon fill="#83A1CC" points="54.4423,67.4243 54.4483,69.5374 48.9722,72.699 48.9662,70.5859        "/></g><g><polygon fill="#DEE7F8" points="67.0641,56.8571 67.0667,57.791 45.4012,70.2996 45.3985,69.3657        "/></g><g><polygon fill="#FFFFFF" points="50.345,62.4639 50.3462,62.8959 45.9065,65.4592 45.9052,65.0272        "/></g><g><polygon fill="#FFFFFF" points="50.3414,61.2002 50.3427,61.6352 45.9029,64.1985 45.9016,63.7635        "/></g><g><polygon fill="#FFFFFF" points="50.3343,58.6756 50.3355,59.1106 45.8957,61.6739 45.8945,61.2389        "/></g><g><path d="M45.3734,60.502l5.4761-3.1616l0.0178,6.2925l-5.4761,3.1616L45.3734,60.502z M50.3427,61.6352         l-0.0012-0.435l-4.4398,2.5633l0.0012,0.435L50.3427,61.6352 M50.3355,59.1106l-0.0012-0.435l-4.4398,2.5633l0.0012,0.435         L50.3355,59.1106 M50.3391,60.3743l-0.0012-0.4348l-4.4398,2.5633l0.0012,0.4348L50.3391,60.3743 M50.3462,62.8959         l-0.0012-0.432l-4.4398,2.5633l0.0012,0.432L50.3462,62.8959" fill="#B6CBEA"/></g><g><polygon fill="#FFFFFF" points="50.3378,59.9395 50.3391,60.3743 45.8993,62.9376 45.8981,62.5028        "/></g></g><g><path d="M49.6457,47.336c0.7848-0.4531,1.4244-0.0944,1.427,0.8102c0.002,0.7064-0.3874,1.5334-0.9354,2.0779        c1.319-0.4984,2.326,0.2385,2.3305,1.8321l-5.6107,3.2393c-0.0045-1.5936,0.995-3.4889,2.3125-4.5127        c-0.5493,0.0891-0.937-0.2893-0.939-0.9956C48.228,48.8825,48.8584,47.7906,49.6457,47.336z" fill="#FFFFFF"/></g><g><path d="M45.3381,48.0456l8.6027-4.9668l0.028,9.8853l-8.6027,4.9668L45.3381,48.0456z M46.8571,55.2955        l5.6107-3.2393c-0.0045-1.5936-1.0115-2.3305-2.3305-1.8321c0.548-0.5444,0.9374-1.3715,0.9354-2.0779        c-0.0026-0.9046-0.6421-1.2633-1.427-0.8102c-0.7874,0.4546-1.4178,1.5465-1.4152,2.4511        c0.002,0.7064,0.3898,1.0847,0.939,0.9956C47.8521,51.8065,46.8526,53.7019,46.8571,55.2955" fill="#6262AA"/></g><g><polygon fill="#B6CBEA" points="63.7827,45.3569 63.7851,46.212 57.6131,49.7754 57.6107,48.9204       "/></g></g></g><g><g><g><g><g enable-background="new    "><path d="M81.5971,39.7647l-0.9791-0.5711c-0.2991-0.1674-0.7096-0.1516-1.1564,0.1122l-10.1814,5.8755          c-0.9037,0.5217-1.6411,1.8138-1.6356,2.8659l0.0531,22.2245c0.005,0.5344,0.1909,0.9122,0.4924,1.088l0.9873,0.5688          C68.8762,71.7527,81.301,39.592,81.5971,39.7647z" fill="#4C4A8B"/><path d="M82.0898,40.8483c-0.0027-1.0559-0.737-1.4987-1.6472-0.9734l-10.1762,5.8739          c-0.9064,0.5232-1.6404,1.8137-1.6378,2.8694l0.0558,22.2227c0.0027,1.065,0.741,1.5009,1.6474,0.9777l10.1762-5.8738          c0.9102-0.5255,1.6402-1.809,1.6376-2.874L82.0898,40.8483z" fill="#B6CBEA"/></g></g><path d="M73.4968,44.9292c-0.0002-0.0818,0.0593-0.1866,0.1342-0.2297l3.5107-2.0265        c0.0751-0.0433,0.1301-0.0047,0.1303,0.0771c0.0001,0.0875-0.0545,0.1892-0.1296,0.2325l-3.5107,2.0266        C73.557,45.0523,73.4968,45.0167,73.4968,44.9292z" fill="#83A1CC"/><g><path d="M74.0392,68.2692c0.0009,0.3444,0.234,0.4821,0.5284,0.3121l1.6462-0.9502         c0.2944-0.1699,0.5222-0.5737,0.5213-0.9181c-0.0009-0.3444-0.23-0.4844-0.5244-0.3145l-1.6462,0.9502         C74.27,67.5187,74.0383,67.9248,74.0392,68.2692z" fill="#83A1CC"/></g></g><polygon fill="#FFFFFF" points="69.3139,69.6844 69.2761,48.5086 81.4413,41.4751 81.4927,62.6584      "/></g><g><g><polygon fill="#B6CBEA" points="80.3961,49.1237 80.3973,49.5696 76.1131,52.0432 76.1118,51.5973       "/></g><g><polygon fill="#B6CBEA" points="80.4028,51.5018 80.4041,51.9477 76.1198,54.4212 76.1185,53.9753       "/></g><g><polygon fill="#B6CBEA" points="78.5068,51.4055 78.508,51.8514 76.1164,53.2321 76.1152,52.7863       "/></g><g enable-background="new    "><g><path d="M80.2168,46.0462l0.4118,0.2347l-0.1039,0.1785l-0.4105-0.2339         c-0.0961,0.1391-0.2095,0.2485-0.3243,0.3148c-0.1386,0.08-0.2773,0.0994-0.382,0.0383         c-0.2119-0.1192-0.213-0.5121-0.0025-0.8766c0.1046-0.1811,0.2427-0.3213,0.3809-0.4011         c0.1383-0.0798,0.2767-0.0993,0.382-0.0394c0.102,0.0581,0.1592,0.1816,0.1596,0.3469         C80.3283,45.7463,80.2878,45.8989,80.2168,46.0462z M80.0662,46.08c0.075-0.1284,0.1156-0.2658,0.1152-0.3871         c-0.0003-0.1198-0.0416-0.21-0.1171-0.2515c-0.0768-0.0438-0.1772-0.0299-0.2775,0.028         c-0.1003,0.0579-0.2018,0.1606-0.2781,0.2928c-0.1526,0.2643-0.1518,0.551,0.0018,0.6385         c0.0768,0.0438,0.1776,0.0296,0.2782-0.0285C79.8894,46.3142,79.9899,46.2122,80.0662,46.08" fill="#FFFFFF"/></g><g><path d="M78.8771,45.3932l2.1144-1.2208l0.0069,2.4463l-2.1144,1.2208L78.8771,45.3932z M80.5247,46.4594         l0.1039-0.1785l-0.4118-0.2347c0.071-0.1473,0.1115-0.2999,0.1111-0.4378c-0.0005-0.1653-0.0577-0.2888-0.1596-0.3469         c-0.1053-0.06-0.2437-0.0405-0.382,0.0394c-0.1383,0.0798-0.2763,0.22-0.3809,0.4011         c-0.2105,0.3646-0.2094,0.7574,0.0025,0.8766c0.1046,0.0611,0.2434,0.0417,0.382-0.0383         c0.1148-0.0663,0.2282-0.1758,0.3243-0.3148L80.5247,46.4594" fill="#9EB5DF"/></g><g><path d="M79.7868,45.4695c0.1003-0.0579,0.2007-0.0718,0.2775-0.028         c0.0755,0.0415,0.1167,0.1317,0.1171,0.2515c0.0003,0.1213-0.0403,0.2587-0.1152,0.3871         c-0.0763,0.1322-0.1768,0.2342-0.2775,0.2923c-0.1006,0.0581-0.2014,0.0723-0.2782,0.0285         c-0.1536-0.0875-0.1544-0.3742-0.0018-0.6385C79.585,45.6301,79.6865,45.5275,79.7868,45.4695z" fill="#9EB5DF"/></g><g><polygon fill="#DEE7F8" points="78.8771,45.3932 78.884,47.8396 80.9984,46.6188 69.74,53.1189 69.733,50.6725        "/></g></g><g><polygon fill="#FFFFFF" points="76.5509,59.117 76.5515,59.343 74.2444,60.6751 74.2438,60.449       "/></g><g><polygon fill="#FFFFFF" points="76.5527,59.7737 76.5534,59.9982 74.2462,61.3302 74.2456,61.1057       "/></g><g><polygon fill="#FFFFFF" points="76.549,58.4619 76.5497,58.6878 74.2425,60.0198 74.2419,59.7939       "/></g><g><polygon fill="#FFFFFF" points="76.5472,57.8051 76.5478,58.0311 74.2407,59.3632 74.24,59.1371       "/></g><g><path d="M73.9693,58.7542l2.8456-1.6429l0.0093,3.2699l-2.8456,1.6429L73.9693,58.7542z M76.5515,59.343        l-0.0006-0.226l-2.3071,1.332l0.0006,0.226L76.5515,59.343 M76.5478,58.0311l-0.0006-0.226l-2.3071,1.332l0.0006,0.226        L76.5478,58.0311 M76.5497,58.6878l-0.0006-0.226l-2.3071,1.332l0.0006,0.2259L76.5497,58.6878 M76.5534,59.9982        l-0.0006-0.2245l-2.3071,1.332l0.0006,0.2245L76.5534,59.9982" fill="#B6CBEA"/></g><g><polygon fill="#FFFFFF" points="80.7536,55.3765 80.7542,55.6026 78.4471,56.9346 78.4464,56.7086       "/></g><g><polygon fill="#FFFFFF" points="80.7573,56.6884 80.7579,56.9145 78.4508,58.2465 78.4502,58.0205       "/></g><g><polygon fill="#FFFFFF" points="80.7591,57.3451 80.7598,57.5696 78.4527,58.9016 78.452,58.6772       "/></g><g><polygon fill="#FFFFFF" points="80.7554,56.0333 80.7561,56.2593 78.4489,57.5913 78.4483,57.3653       "/></g><g><path d="M78.1757,56.3256l2.8456-1.6429l0.0093,3.2699l-2.8456,1.6429L78.1757,56.3256z M80.7579,56.9145        l-0.0006-0.226l-2.3071,1.332l0.0006,0.226L80.7579,56.9145 M80.7542,55.6026l-0.0006-0.226l-2.3071,1.332l0.0006,0.226        L80.7542,55.6026 M80.7561,56.2593l-0.0006-0.2259l-2.3071,1.332l0.0006,0.226L80.7561,56.2593 M80.7598,57.5696        l-0.0006-0.2245l-2.3071,1.332l0.0006,0.2245L80.7598,57.5696" fill="#B6CBEA"/></g><g><polygon fill="#6262AA" points="79.19,62.058 79.1932,63.156 76.3475,64.799 76.3444,63.7009       "/></g><g enable-background="new    "><g><polygon fill="#6262AA" points="74.4755,64.7799 74.4786,65.878 71.633,67.5209 71.6299,66.4229        "/></g><g><polygon fill="#DEE7F8" points="81.0343,59.2887 81.0357,59.774 69.7773,66.2741 69.7759,65.7888        "/></g><g><polygon fill="#FFFFFF" points="72.3463,62.2023 72.347,62.4267 70.0398,63.7588 70.0392,63.5343        "/></g><g><polygon fill="#FFFFFF" points="72.3445,61.5456 72.3451,61.7716 70.038,63.1036 70.0373,62.8776        "/></g><g><polygon fill="#FFFFFF" points="72.3407,60.2337 72.3414,60.4597 70.0343,61.7917 70.0336,61.5657        "/></g><g><path d="M69.7628,61.1828l2.8456-1.6429l0.0093,3.2699l-2.8456,1.6429L69.7628,61.1828z M72.3451,61.7716         l-0.0006-0.226l-2.3071,1.332l0.0006,0.226L72.3451,61.7716 M72.3414,60.4597l-0.0006-0.226l-2.3071,1.332l0.0006,0.226         L72.3414,60.4597 M72.3432,61.1164l-0.0006-0.2259l-2.3071,1.332l0.0006,0.226L72.3432,61.1164 M72.347,62.4268         l-0.0006-0.2245l-2.3071,1.332l0.0006,0.2245L72.347,62.4268" fill="#B6CBEA"/></g><g><polygon fill="#FFFFFF" points="72.3426,60.8905 72.3432,61.1164 70.0361,62.4484 70.0355,62.2225        "/></g></g><g><path d="M71.983,54.3411c0.4078-0.2355,0.7402-0.0491,0.7415,0.421c0.001,0.3671-0.2013,0.7968-0.4861,1.0798        c0.6854-0.259,1.2087,0.1239,1.211,0.952l-2.9156,1.6833c-0.0023-0.8281,0.5171-1.813,1.2017-2.345        c-0.2854,0.0463-0.4869-0.1503-0.488-0.5174C71.2462,55.1447,71.5738,54.5773,71.983,54.3411z" fill="#FFFFFF"/></g><g><path d="M69.7445,54.7098l4.4704-2.581l0.0146,5.1369l-4.4704,2.581L69.7445,54.7098z M70.5338,58.4772        l2.9156-1.6833c-0.0023-0.8281-0.5256-1.211-1.211-0.952c0.2848-0.2829,0.4871-0.7127,0.4861-1.0798        c-0.0013-0.4701-0.3337-0.6565-0.7415-0.421c-0.4092,0.2362-0.7367,0.8036-0.7354,1.2737        c0.001,0.3671,0.2025,0.5637,0.488,0.5174C71.0509,56.6642,70.5315,57.6491,70.5338,58.4772" fill="#6262AA"/></g><g><polygon fill="#B6CBEA" points="79.3292,53.3127 79.3304,53.757 76.1232,55.6087 76.1219,55.1644       "/></g></g></g></g><g><g><g><path d="M62.1878,64.4128l-5.3017,3.061c-0.0726,0.0417-0.1619,0-0.1988-0.0941l-1.4663-3.7704       c-0.0369-0.0928-0.0071-0.2024,0.0667-0.2453l5.3006-3.0598c0.0726-0.0417,0.1607-0.0012,0.1976,0.0928l1.4675,3.7704       C62.289,64.2604,62.2592,64.3711,62.1878,64.4128z" fill="#DEE7F8"/></g><g><polygon fill="#4C4A8B" points="60.4696,60.6469 55.5803,63.4693 57.005,67.1307 61.8943,64.308      "/></g><g><path d="M55.2208,63.6094l1.4663,3.7704c0.0286,0.0738,0.0893,0.1143,0.1488,0.1095l-0.2905,0.025       c-0.0595,0.006-0.1191-0.0357-0.1476-0.1095l-1.4675-3.7692c-0.0357-0.0941-0.006-0.2036,0.0667-0.2453l5.3018-3.061       c0.0155-0.0095,0.0322-0.0143,0.0488-0.0155l0.2905-0.0262c-0.0167,0.0024-0.0333,0.0071-0.05,0.0167l-5.3006,3.0598       C55.2137,63.407,55.1839,63.5165,55.2208,63.6094z" fill="#B6CBEA"/></g></g><g><g><g><g><g><g><g><g><g><g><g><path d="M61.8143,61.0373c0,0,3.1662,0.8538,3.177,1.0177c-0.0025,0.0589,0.1258,3.0318,0.0678,3.7061                c-0.0852,1.0991-3.2645,0.558-2.8088-0.1809c0.2943-0.4853,0.6274-0.826,0.3317-1.0947                c-0.1933-0.1756-0.3151-0.0244-0.5454-0.1881C60.9514,63.5114,61.8143,61.0373,61.8143,61.0373z" fill="#ECB4BF"/></g><path d="M61.2955,66.2097c0.3669-0.2517,0.7509-0.5453,1.0549-0.8771               c0.2131-0.2331,0.5472-0.3383,0.879-0.3112c0.7025,0.0579,1.6872,0.0447,1.836-0.5751c0,0,2.3037-0.3104,1.8814,2.645               c-0.4234,2.9627-0.4271,6.3926-0.5349,7.3493c0,0-3.8577,4.5695-6.0181,1.0058c0,0,0.0048-5.8942-0.1971-6.7285               C60.0205,67.99,59.9842,67.1094,61.2955,66.2097z" fill="#6B9EF9"/><path d="M66.6326,88.3868c0,0-0.1831-0.7904-2.2615-0.6565c-2.0964,0.1353-1.8758-0.3368-2.2979-0.158               c-0.3076,0.1301-0.3411,0.5209-0.0673,0.6568c0.9588,0.4756,2.5884,1.3376,3.7468,1.6445               C67.285,90.2802,66.6326,88.3868,66.6326,88.3868z" fill="#2A2A5E"/><path d="M63.7609,90.1704c0,0-0.1831-0.7904-2.2615-0.6565c-2.0964,0.1353-1.8758-0.3368-2.2979-0.158               c-0.3076,0.1301-0.3411,0.5209-0.0673,0.6568c0.9588,0.4756,2.5884,1.3376,3.7468,1.6445               C64.4133,92.0638,63.7609,90.1704,63.7609,90.1704z" fill="#2A2A5E"/></g></g></g></g></g></g></g><path d="M66.6324,80.5184c0.9031-4.001-0.2204-6.0775-0.2204-6.0775s-0.769,0.6293-1.5462,0.9316        c0.6037,2.3872-1.4674,4.5233-1.2299,4.5789c0.2969,0.9219,0.5502,3.0236,0.599,3.1995        c0.2214,0.7997,0.1363,4.7122,0.1363,4.7122c0.8173,1.4112,2.2611,0.5112,2.2611,0.5112        C66.7706,85.0236,66.0028,83.3075,66.6324,80.5184z" fill="#3A3A77"/><path d="M63.383,82.0506c0.0506-1.0625,0.3179-2.1189,0.9014-3.0083        c0.3336-0.5086,1.0682-2.4986,0.5807-3.6719c-1.4331,0.5589-3.8517,1.1218-4.4712,0.0766c0,0-1.0088,2.1256,0.2945,6.4025        c0.4135,1.3574,0.4345,2.4515,0.4629,3.8589l0.0748,4.0074c0,0,0.6574,1.1093,2.5348,0.4545c0,0-0.1801-3.3156-0.3319-5.2512        c-0.0688-0.8769-0.0911-1.7547-0.0562-2.6336C63.376,82.2046,63.3794,82.1263,63.383,82.0506z" fill="#4C4A8B"/></g><path d="M65.9348,62.5129c0.0155-0.3603,0.3752-2.2165-1.9853-2.4032       c-4.6697-0.3694-2.2771,2.6793-1.2711,3.2622c0.2287,0.1278,0.1576,0.374,0.2285,0.9475l0.2181,0.0173       c0.0089-0.2766,0.0814-0.9488,0.5211-0.7139c0.3267,0.1673,0.3265,0.9196,0.5129,1.3302       c0.0422,0.0928,0.1419,0.1411,0.2389,0.1097c0.3393-0.1106,0.9533-0.4014,1.1543-0.5459       c0.0414-0.0298,0.065-0.0724,0.073-0.1228C65.7348,63.7042,65.9317,62.8698,65.9348,62.5129z" fill="#8C4031"/></g><g><path d="M56.3165,65.2109c-0.0539,0.0959-0.0299,0.413-0.0299,0.413s0,0.2154-0.1137,0.4431       c-0.1197,0.2274-0.0898,0.4788,0.012,0.7901l-0.7723,0.1976c0,0-0.1676-0.4671-0.2993-0.5808       c-0.1317-0.1137-0.3592-0.7062-0.3711-0.7302c0,0-0.1736-0.7363-0.1796-0.8082c-0.0239-0.2216,0.2873-0.5507,0.5866-0.7363       l0.443,1.1312c0.1916,0.4253,0.3831,0.1619,0.3831,0.1619s0.0539-0.2397,0.0599-0.2993       c0.0179-0.1619,0.2095-0.3712,0.4131-0.2754c0.0179,0.0059,0.0179,0.0178,0.0119,0.0357L56.3165,65.2109z" fill="#ECB4BF"/><path d="M62.5087,67.3262c-0.312-0.9332-1.2482-1.0536-2.0312-0.4573       c-0.6318,0.4812-1.5065,1.3095-2.4873,2.3323c0,0-0.6013-0.0468-1.8281-2.8861c-0.1904-0.1637-0.7136,0.0941-1.0323,0.2245       c0,0,0.9025,5.8335,2.6231,4.9601c1.1932-0.6059,2.9623-1.6746,4.1979-2.5151C62.488,68.619,62.7148,67.9422,62.5087,67.3262z" fill="#6B9EF9"/></g></g></g></g><g><g><g><polygon fill="#1E72C6" points="99.9534,72.032 100.4153,69.5093 99.8468,68.6228 98.615,67.9782 97.1819,67.7625       95.6304,68.1275 94.4341,68.9618 94.4341,70.2784 94.7421,72.032     "/><g><path d="M99.6637,71.0618c-1.285,0.822-3.3752,0.8232-4.6705,0.0001       c-0.5152-0.3275-0.8225-0.5795-0.9287-1.0044l0.7632,4.6365c0.0485,0.2996,0.3313,0.5899,0.825,0.8012       c0.9432,0.4041,2.3864,0.4041,3.3232,0c0.4853-0.209,0.7638-0.4946,0.8144-0.7896l0.788-4.6331       C100.4723,70.4922,100.1695,70.7384,99.6637,71.0618z" fill="#3887E5"/></g><g><path d="M99.6485,68.2409c1.2954,0.8231,1.3002,2.1557,0.0152,2.9776c-1.285,0.8219-3.3752,0.8232-4.6706,0       c-1.2934-0.8219-1.2983-2.1544-0.0133-2.9764C96.2649,67.4203,98.3551,67.419,99.6485,68.2409z M95.3856,70.9676       c1.0766,0.6841,2.8155,0.6853,3.8851,0.0012c1.0695-0.6841,1.0639-1.7939-0.0127-2.4781       c-1.0766-0.6841-2.8155-0.6828-3.885,0.0013C94.3034,69.176,94.309,70.2834,95.3856,70.9676" fill="#A6C2FF"/></g></g></g><g><path d="M99.5529,66.9256c-0.2702-0.2555-0.5882-0.5256-0.6117-0.8635c-0.0199-0.2868,0.1855-0.5392,0.4238-0.726     c0.2382-0.1867,0.5191-0.3348,0.7236-0.5498c0.287-0.3016,0.5306-0.7969,0.4247-1.1931     c-0.0255-0.0956-0.105-0.3887-0.2794-0.4767c-0.3423-0.173-0.7691,0.0213-1.1562-0.0802     c-0.2827-0.0742-0.4571-0.3453-0.4751-0.5985c-0.018-0.2532,0.0851-0.4936,0.1833-0.7271     c0.357-0.8482,0.6665-1.5192,0.2616-2.3877c-0.1234-0.2649-0.3515-0.4782-0.603-0.666     c-0.6056-0.4522-1.5335-0.0019-1.8557,0.2206c-0.4822,0.3331-0.7834,0.8321-0.943,1.3562     c-0.1596,0.5242-0.1882,1.0768-0.2019,1.6255c-0.0096,0.3851-0.0157,0.7836-0.2014,1.125     c-0.2302,0.4229-0.7156,0.7167-0.8718,1.1673c-0.0654,0.1888-0.0675,0.3925-0.0515,0.593     c0.0481,0.5991,0.2922,1.2408,0.862,1.6045c0.1798,0.1147,0.3897,0.2008,0.5289,0.3525     c0.1034,0.1128,0.1578,0.2518,0.2009,0.3892c0.0724,0.2308,0.1185,0.4734,0.0625,0.7016     c-0.1183,0.4825-0.6517,0.7831-0.896,1.2231c-0.2935,0.5284-0.1109,1.2226,0.3655,1.6793     c0.2577,0.2469,0.657,0.4408,1.0004,0.3297c0.2132-0.069,0.3529-0.238,0.5079-0.3803c0.7146-0.656,1.8661-0.8053,2.7045-1.3409     c0.2536-0.1619,0.4821-0.3661,0.5915-0.625C100.4974,68.0871,100.0661,67.4109,99.5529,66.9256z" fill="#6B9EF9"/><polygon fill="#4C4A8B" points="97.2553,68.9817 95.9011,68.8474 95.8779,69.0816 97.2553,69.2179 97.2553,71.6217      97.4903,71.6217 97.4903,68.2961 99.2704,67.4201 99.1666,67.2091 97.4903,68.034 97.4903,65.6256 99.7549,63.6253      99.5994,63.4491 97.4903,65.3117 97.4903,59.5135 97.2553,59.5135 97.2553,64.557 95.4111,63.9745 95.3403,64.1986      97.2553,64.8037    "/></g><g><path d="M100.0352,69.9636c-0.0755,0.3675-0.3231,0.7227-0.7645,1.0052     c-1.0695,0.6841-2.8085,0.6827-3.8851-0.0013c-0.4442-0.2823-0.6955-0.6371-0.7747-1.0039h-0.568     c0.0817,0.4584,0.3971,0.9034,0.9504,1.2549c1.2954,0.8232,3.3855,0.8219,4.6706,0c0.5495-0.3515,0.8611-0.7966,0.9388-1.2549     H100.0352z" fill="#A6C2FF"/></g></g><g><g><g><polygon fill="#1E72C6" points="30.1078,76.523 30.5697,74.0003 30.0012,73.1139 28.7694,72.4693 27.3363,72.2535       25.7847,72.6185 24.5885,73.4528 24.5885,74.7694 24.8964,76.523     "/><g><path d="M29.8181,75.5528c-1.285,0.822-3.3752,0.8232-4.6706,0.0001       c-0.5152-0.3275-0.8225-0.5795-0.9287-1.0044l0.7632,4.6365c0.0485,0.2996,0.3313,0.5899,0.825,0.8012       c0.9432,0.4041,2.3864,0.4041,3.3232,0c0.4853-0.209,0.7638-0.4946,0.8144-0.7896l0.788-4.6331       C30.6266,74.9832,30.3239,75.2295,29.8181,75.5528z" fill="#3887E5"/></g><g><path d="M29.8029,72.7319c1.2954,0.8231,1.3002,2.1557,0.0152,2.9776c-1.2851,0.8219-3.3752,0.8232-4.6706,0       c-1.2934-0.8219-1.2983-2.1544-0.0133-2.9764C26.4192,71.9113,28.5095,71.91,29.8029,72.7319z M25.54,75.4586       c1.0766,0.6841,2.8155,0.6853,3.8851,0.0012c1.0696-0.6841,1.0639-1.794-0.0127-2.4781s-2.8155-0.6828-3.885,0.0013       C24.4578,73.6671,24.4634,74.7745,25.54,75.4586" fill="#A6C2FF"/></g></g></g><g><path d="M29.7073,71.4166c-0.2702-0.2555-0.5882-0.5256-0.6117-0.8635c-0.0199-0.2868,0.1855-0.5392,0.4238-0.726     c0.2382-0.1867,0.5191-0.3348,0.7236-0.5498c0.287-0.3016,0.5306-0.7969,0.4247-1.1931     c-0.0255-0.0956-0.105-0.3887-0.2794-0.4767c-0.3423-0.173-0.7691,0.0213-1.1562-0.0802     c-0.2827-0.0742-0.4571-0.3453-0.4751-0.5985s0.0851-0.4936,0.1833-0.7271c0.357-0.8482,0.6665-1.5192,0.2616-2.3877     c-0.1234-0.2649-0.3515-0.4782-0.603-0.666c-0.6056-0.4522-1.5335-0.0019-1.8557,0.2206     c-0.4822,0.3331-0.7834,0.8321-0.943,1.3562c-0.1596,0.5242-0.1882,1.0768-0.2019,1.6255     c-0.0096,0.3851-0.0157,0.7836-0.2014,1.125c-0.2302,0.4229-0.7156,0.7167-0.8718,1.1673     c-0.0654,0.1888-0.0675,0.3925-0.0515,0.593c0.0481,0.5991,0.2922,1.2408,0.862,1.6045     c0.1798,0.1147,0.3897,0.2008,0.5289,0.3525c0.1034,0.1128,0.1578,0.2518,0.2008,0.3892     c0.0724,0.2308,0.1185,0.4734,0.0625,0.7016c-0.1183,0.4825-0.6517,0.7831-0.896,1.2231     c-0.2935,0.5284-0.1109,1.2226,0.3655,1.6793c0.2577,0.2469,0.657,0.4408,1.0004,0.3297c0.2132-0.069,0.3529-0.238,0.5079-0.3803     c0.7147-0.656,1.8661-0.8053,2.7045-1.3409c0.2536-0.1619,0.4821-0.3661,0.5915-0.625     C30.6517,72.5782,30.2205,71.9019,29.7073,71.4166z" fill="#6B9EF9"/><polygon fill="#4C4A8B" points="27.4097,73.4727 26.0554,73.3384 26.0323,73.5727 27.4097,73.7089 27.4097,76.1128      27.6447,76.1128 27.6447,72.7871 29.4248,71.9111 29.3209,71.7002 27.6447,72.525 27.6447,70.1166 29.9093,68.1164      29.7537,67.9401 27.6447,69.8028 27.6447,64.0045 27.4097,64.0045 27.4097,69.048 25.5655,68.4656 25.4947,68.6896      27.4097,69.2947    "/></g><g><path d="M30.1895,74.4546c-0.0755,0.3675-0.3231,0.7227-0.7645,1.0052     c-1.0695,0.6841-2.8085,0.6827-3.8851-0.0013c-0.4442-0.2823-0.6955-0.6371-0.7748-1.0039h-0.568     c0.0817,0.4584,0.3971,0.9034,0.9504,1.2549c1.2954,0.8232,3.3855,0.8219,4.6706,0c0.5495-0.3515,0.8611-0.7966,0.9388-1.2549     H30.1895z" fill="#A6C2FF"/></g></g></g></svg>