<?xml version="1.0" standalone="no"?><!DOCTYPE svg PUBLIC "-//W3C//DTD SVG 1.1//EN" "http://www.w3.org/Graphics/SVG/1.1/DTD/svg11.dtd"><svg t="1612257769033" class="icon" viewBox="0 0 1024 1024" version="1.1" xmlns="http://www.w3.org/2000/svg" p-id="69583" width="32" height="32" xmlns:xlink="http://www.w3.org/1999/xlink"><defs><style type="text/css"></style></defs><path d="M619 66c48.601 0 88 39.399 88 88v804H151c-48.601 0-88-39.399-88-88V154c0-48.601 39.399-88 88-88h468z m0.562 54H151c-18.59 0-33.695 14.92-34 33.438V870c0 18.59 14.92 33.695 33.438 34H653V154c0-18.404-14.622-33.393-32.883-33.982l-0.555-0.018z" p-id="69584" fill="#7b9ee7"></path><path d="M870 474c48.601 0 88 39.399 88 88v308c0 48.601-39.399 88-88 88H653V474h217zM707 904h163c18.59 0 33.695-14.92 33.995-33.438L904 870V562c0-18.59-14.92-33.695-33.438-33.995L870 528H707v376z" p-id="69585" fill="#7b9ee7"></path><path d="M544 681c14.912 0 27 12.088 27 27s-12.088 27-27 27H226c-14.912 0-27-12.088-27-27s12.088-27 27-27h318z m0-207c14.912 0 27 12.088 27 27s-12.088 27-27 27H226c-14.912 0-27-12.088-27-27s12.088-27 27-27h318zM358 290c14.912 0 27 12.088 27 27s-12.088 27-27 27H226c-14.912 0-27-12.088-27-27s12.088-27 27-27h132z" p-id="69586" fill="#7b9ee7"></path></svg>