<?xml version="1.0" standalone="no"?><!DOCTYPE svg PUBLIC "-//W3C//DTD SVG 1.1//EN" "http://www.w3.org/Graphics/SVG/1.1/DTD/svg11.dtd"><svg t="1612256954548" class="icon" viewBox="0 0 1024 1024" version="1.1" xmlns="http://www.w3.org/2000/svg" p-id="46977" width="32" height="32" xmlns:xlink="http://www.w3.org/1999/xlink"><defs><style type="text/css"></style></defs><path d="M348.16 665.6a10.24 10.24 0 0 1 10.16832 9.04192L358.4 675.84v143.36a10.24 10.24 0 0 1-9.04192 10.16832L348.16 829.44H204.8a10.24 10.24 0 0 1-10.16832-9.04192L194.56 819.2V675.84a10.24 10.24 0 0 1 9.04192-10.16832L204.8 665.6h143.36z m-10.24 20.48H215.04v122.88h122.88V686.08z m225.28 0a10.24 10.24 0 0 1 10.24 10.24v102.4a10.24 10.24 0 0 1-10.24 10.24H460.8a10.24 10.24 0 0 1-10.24-10.24V696.32a10.24 10.24 0 0 1 10.24-10.24z m225.28 10.24a10.24 10.24 0 0 1 10.24 10.24v81.92a10.24 10.24 0 0 1-10.24 10.24h-81.92a10.24 10.24 0 0 1-10.24-10.24v-81.92a10.24 10.24 0 0 1 10.24-10.24z m-235.52 10.24h-81.92v81.92h81.92v-81.92z m225.28 10.24h-61.44v61.44h61.44v-61.44zM348.16 430.08a10.24 10.24 0 0 1 10.16832 9.04192L358.4 440.32v143.36a10.24 10.24 0 0 1-9.04192 10.16832L348.16 593.92H204.8a10.24 10.24 0 0 1-10.16832-9.04192L194.56 583.68V440.32a10.24 10.24 0 0 1 9.04192-10.16832L204.8 430.08h143.36z m225.28 10.24a10.24 10.24 0 0 1 10.16832 9.04192L583.68 450.56v122.88a10.24 10.24 0 0 1-9.04192 10.16832L573.44 583.68H450.56a10.24 10.24 0 0 1-10.16832-9.04192L440.32 573.44V450.56a10.24 10.24 0 0 1 9.04192-10.16832L450.56 440.32h122.88z m-235.52 10.24H215.04v122.88h122.88V450.56z m460.8 0a10.24 10.24 0 0 1 10.24 10.24v102.4a10.24 10.24 0 0 1-10.24 10.24H696.32a10.24 10.24 0 0 1-10.24-10.24V460.8a10.24 10.24 0 0 1 10.24-10.24z m-235.52 10.24H460.8v102.4h102.4V460.8z m225.28 10.24h-81.92v81.92h81.92v-81.92zM348.16 194.56a10.24 10.24 0 0 1 10.24 10.24v143.36a10.24 10.24 0 0 1-10.24 10.24H204.8a10.24 10.24 0 0 1-10.24-10.24V204.8a10.24 10.24 0 0 1 10.24-10.24z m235.52 0a10.24 10.24 0 0 1 10.24 10.24v143.36a10.24 10.24 0 0 1-10.24 10.24H440.32a10.24 10.24 0 0 1-10.24-10.24V204.8a10.24 10.24 0 0 1 10.24-10.24z m235.52 0a10.24 10.24 0 0 1 10.16832 9.04192L829.44 204.8v143.36a10.24 10.24 0 0 1-9.04192 10.16832L819.2 358.4H675.84a10.24 10.24 0 0 1-10.16832-9.04192L665.6 348.16V204.8a10.24 10.24 0 0 1 9.04192-10.16832L675.84 194.56h143.36z m-481.28 20.48H215.04v122.88h122.88V215.04z m235.52 0H450.56v122.88h122.88V215.04z m235.52 0H686.08v122.88h122.88V215.04z" p-id="46978" fill="#7b9ee7"></path></svg>