<?xml version="1.0" standalone="no"?><!DOCTYPE svg PUBLIC "-//W3C//DTD SVG 1.1//EN" "http://www.w3.org/Graphics/SVG/1.1/DTD/svg11.dtd"><svg t="1613802714304" class="icon" viewBox="0 0 1024 1024" version="1.1" xmlns="http://www.w3.org/2000/svg" p-id="1541" xmlns:xlink="http://www.w3.org/1999/xlink" width="32" height="32"><defs><style type="text/css"></style></defs><path d="M895.4 222.4l-49.8-28.8-60.3-35.1L570.4 33.7c-36.2-21-81.2-21-117.4 0L128.6 222.4c-35.6 21-58.2 59.8-58.2 101.2V701c0 41.4 22.5 80.2 58.2 101.2l49.8 28.8 60.3 34.6 214.9 124.7c18.3 10.5 38.3 15.7 58.7 15.7 20.4 0 40.4-5.2 58.7-15.7l324.4-188.2c36.2-21 58.2-59.8 58.2-101.2V323.6c0-41.4-22.6-80.2-58.2-101.2zM131.2 323.6c0-19.9 11-38.8 28.3-48.7L484 86.1c8.9-5.2 18.3-7.9 28.3-7.9s19.4 2.6 28.3 7.9l185 107.4-489 284.1-105.4-61.3v-92.7zM511.7 387l215.9 125.3-215.3 125.2-216-125.2L511.7 387zM159 750.2c-17.3-10-28.3-28.8-28.3-48.7V486.1l45.1 26.2 60.3 35.1L452 672.6 238.7 796.3 159 750.2zM893.3 701c0 19.9-11 38.8-28.3 48.7L540.6 937.9c-17.3 10-39.3 10-56.6 0L299 830.5l213.3-123.7L788 546.9l105.4 61.3V701z m0-284.7v122.1l-45.1-26.2-60.2-35.1-215.5-125.2 213.3-123.7 79.1 46.6c17.3 10 28.3 28.8 28.3 48.7v92.8z" p-id="1542" fill="#108ee9"></path></svg>